<svg width="4000" height="4000" viewBox="0 0 4000 4000" fill="none" xmlns="http://www.w3.org/2000/svg">
<g clip-path="url(#clip0_120_2)">
<path d="M2599.53 2536.5L2601.63 2571.17C2602.34 2583.18 2592.42 2593.2 2580.41 2592.49C2566.55 2591.72 2552.69 2589.83 2538.73 2586.66C2516.59 2581.65 2494.29 2573.57 2471.74 2562.06C2471.74 2574.03 2471.59 2586.1 2471.33 2598.27C2471.28 2602.21 2471.18 2606.14 2471.03 2610.08C2470.87 2616.11 2470.67 2622.2 2470.41 2628.28C2470.41 2628.85 2470.36 2629.36 2470.36 2629.92C2470.1 2636.67 2469.75 2643.42 2469.39 2650.22C2468.98 2658.45 2468.47 2666.69 2467.91 2674.97C2467.6 2679.78 2467.24 2684.64 2466.83 2689.49C2466.63 2692.82 2466.32 2696.14 2466.07 2699.46C2464.94 2713.63 2463.61 2727.84 2462.08 2742.11C2450.72 2848.06 2428.99 2957.19 2394.42 3062.37C2394.42 3062.48 2394.37 3062.53 2394.37 3062.63C2393.86 3064.11 2393.4 3065.65 2392.89 3067.13C2386.04 3063.86 2378.21 3061.1 2369.42 3059C2368.75 3058.79 2368.04 3058.64 2367.32 3058.49C2363.33 3057.62 2359.29 3057.06 2355.2 3056.9H2354.95C2352.34 3056.8 2349.73 3056.85 2347.12 3057.06C2327.69 3058.69 2306.88 3061.86 2285.61 3066.52C2209.67 3083.03 2127.91 3117.81 2081.17 3164.13L2060.1 2958.36C2010.7 2969.61 1961.36 2967.82 1911.96 2953.05L1890.38 3164.13C1830.55 3104.87 1713.35 3064.47 1624.37 3057.06C1617.62 3056.49 1610.82 3057.01 1604.23 3058.49C1601.77 3059.05 1599.37 3059.66 1597.07 3060.28C1559.94 2946.45 1537.7 2828.12 1527.42 2714.24C1526.96 2709.33 1526.55 2704.42 1526.14 2699.52C1525.22 2688.32 1524.46 2677.17 1523.74 2666.07C1522.1 2638.97 1521.08 2612.23 1520.67 2585.94C1472.86 2585.94 1403.16 2577.05 1347.32 2556.85C1333.57 2551.84 1321.45 2543.35 1312.29 2532.4C1305.59 2524.48 1300.53 2515.17 1297.46 2505C1253.08 2356.04 1371.81 2138.41 1522.46 2028.46C1449.03 1978.66 1429.5 1910.75 1472.04 1857.16L2292.92 1856.24L2517.61 1855.98C2561.38 1909.78 2542.1 1978.25 2468.16 2028.46C2489.43 2040.27 2509.89 2051.98 2529.47 2063.7C2570.89 2088.39 2608.32 2112.84 2641.21 2136.92C2845.03 2286.14 2874.64 2422.57 2599.53 2536.5Z" fill="#ABEEAE"/>
<path d="M2475.6 2550.87C2475.48 2552.72 2475.36 2554.66 2476.09 2556.36C2476.74 2557.89 2478 2559.06 2479.28 2560.11C2492.32 2570.8 2510.27 2572.92 2527.13 2573.33C2543.99 2573.73 2561.43 2572.96 2577.07 2579.29C2580.4 2580.63 2583.79 2582.32 2587.37 2582C2596.09 2581.22 2599.14 2570.18 2599.99 2561.46C2600.88 2552.41 2601.63 2542.69 2597.1 2534.81C2594.67 2530.58 2590.93 2527.29 2587.25 2524.09C2579.38 2517.22 2571.51 2510.36 2563.43 2503.75C2554.37 2496.33 2544.9 2489.14 2534.02 2484.81C2522.21 2480.11 2487.67 2472.23 2477.19 2483.31C2471.19 2489.65 2475.62 2504.24 2475.97 2511.94C2476.56 2524.91 2476.44 2537.91 2475.6 2550.87Z" fill="#F5FFF7"/>
<path d="M2478.21 2043.27C2451.58 2058.12 2423.57 2068.4 2395.29 2075.76C2366.98 2083.1 2338.34 2087.49 2309.77 2089.89C2308.36 2090.01 2307.12 2088.96 2307 2087.55C2306.89 2086.29 2307.73 2085.17 2308.9 2084.85C2336.35 2077.46 2363.13 2068.2 2388.43 2056.49C2413.7 2044.8 2437.54 2030.6 2458.11 2013.65C2465.78 2007.34 2477.1 2008.43 2483.42 2016.1C2489.73 2023.76 2488.64 2035.09 2480.97 2041.4C2480.15 2042.08 2479.28 2042.67 2478.38 2043.18L2478.21 2043.27Z" fill="#2D362E"/>
<path d="M1561.03 3155.24C1566.5 3158.25 1572.69 3160.09 1579.44 3160.4C1691.27 3165.82 1799.63 3208.62 1864.62 3277.65C1868.2 3281.44 1872.29 3284.3 1876.59 3286.14C1880.83 3288.09 1885.33 3289.06 1889.83 3289.21C1906.81 3289.88 1923.63 3278.73 1927.16 3259.45C1933.65 3224.47 1918.16 3192.21 1889.83 3164.13C1830 3104.87 1712.85 3064.47 1623.87 3057.06C1617.12 3056.49 1610.27 3057.01 1603.68 3058.49C1594.01 3060.69 1585.52 3063.6 1578.11 3067.13C1560.11 3075.57 1548.5 3087.58 1542.36 3101.34C1533.06 3122.2 1542.62 3145.21 1561.03 3155.24Z" fill="#F5FFF7"/>
<path d="M1891.2 3291.79C1890.71 3291.79 1890.22 3291.78 1889.73 3291.76C1884.71 3291.6 1879.93 3290.49 1875.52 3288.47C1870.87 3286.48 1866.56 3283.42 1862.76 3279.41C1799.31 3212.02 1693.35 3168.48 1579.31 3162.96C1572.39 3162.64 1565.82 3160.8 1559.8 3157.48C1539.38 3146.36 1530.69 3121.24 1540.03 3100.3C1546.82 3085.07 1559.27 3073.14 1577.02 3064.82C1584.72 3061.15 1593.5 3058.18 1603.11 3055.99C1610.08 3054.42 1617.14 3053.92 1624.09 3054.51C1710.2 3061.68 1829.75 3101.02 1891.63 3162.32C1923.11 3193.51 1935.91 3226.35 1929.67 3259.92C1925.8 3281.06 1907.66 3291.79 1891.2 3291.79ZM1618.46 3059.39C1613.72 3059.39 1608.96 3059.92 1604.24 3060.98C1595 3063.08 1586.58 3065.93 1579.21 3069.44C1562.58 3077.23 1550.98 3088.31 1544.7 3102.38C1536.44 3120.9 1544.15 3143.13 1562.25 3152.99L1562.26 3153C1567.59 3155.94 1573.41 3157.57 1579.55 3157.85C1694.89 3163.44 1802.15 3207.57 1866.48 3275.9C1869.79 3279.39 1873.53 3282.05 1877.59 3283.79C1881.44 3285.56 1885.57 3286.51 1889.92 3286.65C1904.57 3287.3 1921.18 3277.91 1924.65 3258.99C1930.55 3227.18 1918.23 3195.88 1888.03 3165.95C1827.02 3105.51 1708.86 3066.7 1623.66 3059.6C1621.93 3059.46 1620.2 3059.39 1618.46 3059.39Z" fill="#2D362E"/>
<g opacity="0.3">
<path d="M1927.15 3259.45C1923.62 3278.73 1906.8 3289.88 1889.82 3289.21C1885.32 3289.06 1880.82 3288.09 1876.58 3286.14C1872.28 3284.3 1868.19 3281.44 1864.61 3277.65C1846.46 3258.38 1824.93 3241.14 1800.95 3226.21C1817.52 3226.31 1833.73 3215.27 1837.15 3196.4C1843.13 3164.18 1830.45 3134.27 1806.32 3107.83C1838.99 3123.69 1868.14 3142.71 1889.82 3164.13C1918.15 3192.21 1933.64 3224.47 1927.15 3259.45Z" fill="#2D362E"/>
</g>
<g opacity="0.55">
<path d="M1658.53 3068.25C1648.87 3070.45 1640.38 3073.37 1632.97 3076.9C1614.97 3085.33 1603.36 3097.35 1597.22 3111.11C1588.43 3130.79 1596.45 3152.42 1612.92 3163.16C1601.82 3161.88 1590.63 3160.96 1579.43 3160.4C1572.68 3160.09 1566.49 3158.25 1561.02 3155.24C1542.61 3145.21 1533.05 3122.2 1542.35 3101.34C1548.49 3087.58 1560.1 3075.57 1578.1 3067.13C1585.51 3063.6 1594 3060.69 1603.67 3058.49C1610.26 3057 1617.11 3056.49 1623.86 3057.06C1645.85 3058.9 1669.53 3062.73 1693.66 3068.36C1688.6 3067.74 1683.64 3067.23 1678.73 3066.82C1671.98 3066.26 1665.13 3066.77 1658.53 3068.25Z" fill="#F5FFF7"/>
</g>
<path d="M1876.58 3286.14V3286.19C1859.19 3341.42 1793.12 3386.01 1716.21 3413.27C1599.11 3454.74 1456.85 3456.17 1422.7 3394.09C1418.71 3374.97 1419.27 3355.64 1427.86 3337.28C1432.26 3327.77 1437.88 3318.82 1444.28 3310.13C1444.28 3310.13 1444.33 3310.13 1444.33 3310.07C1479.1 3263.03 1537.55 3224.42 1561.02 3155.24C1566.49 3158.25 1572.68 3160.09 1579.43 3160.4C1691.26 3165.82 1799.62 3208.62 1864.61 3277.65C1868.19 3281.44 1872.28 3284.3 1876.58 3286.14Z" fill="#ABEEAE"/>
<g opacity="0.55">
<path d="M1684.15 3176.71C1662.93 3172.88 1641.3 3170.42 1619.52 3169.35C1612.77 3169.04 1606.58 3167.2 1601.11 3164.18C1573.29 3246.15 1496.33 3285.27 1467.95 3346.23C1459.36 3364.58 1458.8 3383.91 1462.79 3403.04C1472.2 3420.17 1489.89 3432.44 1513 3440.37C1470.41 3435 1437.01 3420.12 1422.7 3394.09C1418.71 3374.97 1419.27 3355.64 1427.86 3337.28C1456.24 3276.32 1533.2 3237.21 1561.02 3155.24C1566.49 3158.25 1572.68 3160.09 1579.43 3160.4C1615.12 3162.14 1650.45 3167.66 1684.15 3176.71Z" fill="#F5FFF7"/>
</g>
<path d="M1889.82 3289.21V3363C1889.82 3393.27 1876.32 3421.91 1853.11 3441.29C1820.94 3468.08 1779.57 3489 1735.29 3502.7C1617.37 3539.21 1478.54 3524.54 1436.25 3433.26C1430.37 3420.53 1425.46 3407.34 1422.7 3394.09C1425.61 3399.36 1429.29 3404.17 1433.64 3408.51C1434.51 3409.38 1435.43 3410.25 1436.35 3411.12C1444.74 3418.64 1455.32 3424.77 1467.65 3429.53C1471.74 3431.11 1476.03 3432.55 1480.48 3433.88C1503.08 3440.42 1530.13 3443.23 1559.33 3442.72C1561.07 3442.67 1562.81 3442.62 1564.6 3442.57C1565.16 3442.57 1565.72 3442.57 1566.29 3442.52C1568.28 3442.47 1570.27 3442.36 1572.27 3442.26C1577.74 3442 1583.31 3441.65 1588.94 3441.14C1590.27 3441.03 1591.65 3440.93 1593.03 3440.78C1595.79 3440.47 1598.55 3440.22 1601.31 3439.91C1603 3439.7 1604.69 3439.5 1606.38 3439.29C1607.91 3439.09 1609.39 3438.89 1610.93 3438.68C1614.1 3438.27 1617.32 3437.81 1620.54 3437.3L1626.37 3436.38C1628.78 3435.97 1631.23 3435.56 1633.63 3435.1C1637.11 3434.49 1640.59 3433.82 1644.07 3433.11C1714.79 3418.89 1786.02 3389.54 1831.63 3349.7C1832.76 3348.73 1833.88 3347.76 1834.95 3346.74C1838.99 3343.06 1842.88 3339.27 1846.46 3335.39C1847.28 3334.57 1848.04 3333.7 1848.81 3332.83C1855.2 3325.72 1860.78 3318.31 1865.43 3310.64C1866.25 3309.2 1867.07 3307.82 1867.83 3306.39C1868.6 3305.01 1869.32 3303.63 1870.03 3302.25C1871.05 3300.21 1872.03 3298.11 1872.95 3295.96C1873.51 3294.68 1874.02 3293.35 1874.53 3292.02C1875.3 3290.08 1875.96 3288.14 1876.58 3286.19V3286.14C1880.21 3287.78 1883.99 3288.75 1887.83 3289.06C1888.49 3289.16 1889.16 3289.21 1889.82 3289.21Z" fill="#F5FFF7"/>
<path d="M1615.47 3523.86C1535.64 3523.86 1463.08 3497.26 1433.93 3434.34C1427.24 3419.85 1422.75 3406.86 1420.19 3394.61L1416.74 3378.05L1424.93 3392.85C1427.68 3397.81 1431.22 3402.47 1435.45 3406.7C1436.3 3407.56 1437.2 3408.41 1438.11 3409.26C1446.06 3416.39 1456.32 3422.42 1468.57 3427.14C1472.4 3428.63 1476.54 3430.03 1481.21 3431.43C1503.04 3437.74 1529.3 3440.67 1559.29 3440.17L1564.53 3440.01C1565.08 3440.01 1565.57 3440.01 1566.05 3439.97C1568.19 3439.91 1570.16 3439.81 1572.14 3439.71C1578.1 3439.43 1583.51 3439.06 1588.71 3438.59C1590.13 3438.48 1591.44 3438.38 1592.75 3438.24L1610.59 3436.15C1613.75 3435.74 1616.94 3435.28 1620.14 3434.78L1626.93 3433.69C1629 3433.34 1631.09 3432.98 1633.15 3432.59C1636.64 3431.97 1640.09 3431.31 1643.55 3430.6C1719.14 3415.41 1787.07 3385.22 1829.95 3347.78C1831.1 3346.78 1832.17 3345.86 1833.19 3344.89C1837.57 3340.89 1841.29 3337.23 1844.58 3333.65C1845.43 3332.8 1846.16 3331.97 1846.89 3331.14C1853.24 3324.08 1858.73 3316.74 1863.24 3309.31L1863.88 3308.2C1864.46 3307.19 1865.03 3306.2 1865.58 3305.18C1866.35 3303.79 1867.06 3302.43 1867.76 3301.07C1868.74 3299.11 1869.69 3297.05 1870.59 3294.95C1871.15 3293.69 1871.64 3292.4 1872.14 3291.1C1872.85 3289.32 1873.46 3287.56 1874.02 3285.8V3282.23L1877.62 3283.81C1880.96 3285.31 1884.46 3286.22 1888.03 3286.51C1888.74 3286.61 1889.28 3286.65 1889.82 3286.65H1892.37V3363C1892.37 3394.03 1878.66 3423.28 1854.74 3443.25C1823.31 3469.44 1782.26 3490.84 1736.04 3505.14C1697.05 3517.22 1655.35 3523.86 1615.47 3523.86ZM1428.71 3406.99C1431.18 3414.91 1434.44 3423.25 1438.57 3432.19C1481.06 3523.89 1619.63 3535.84 1734.53 3500.26C1780.11 3486.15 1820.55 3465.08 1851.47 3439.32C1874.22 3420.34 1887.26 3392.52 1887.26 3363V3291.57C1884.24 3291.32 1881.17 3290.64 1878.17 3289.55C1877.77 3290.69 1877.36 3291.83 1876.91 3292.97C1876.39 3294.31 1875.87 3295.68 1875.28 3296.99C1874.35 3299.16 1873.36 3301.31 1872.32 3303.39C1871.57 3304.83 1870.85 3306.23 1870.07 3307.63C1869.52 3308.67 1868.92 3309.7 1868.31 3310.76L1867.65 3311.91C1862.94 3319.67 1857.25 3327.26 1850.71 3334.54C1849.93 3335.43 1849.12 3336.34 1848.27 3337.2C1844.94 3340.8 1841.13 3344.57 1836.67 3348.63C1835.64 3349.62 1834.51 3350.6 1833.38 3351.58C1789.79 3389.64 1720.99 3420.25 1644.57 3435.61C1641.08 3436.33 1637.57 3437 1634.08 3437.62C1632.02 3438.01 1629.89 3438.37 1627.78 3438.73L1620.94 3439.82C1617.69 3440.34 1614.45 3440.8 1611.25 3441.22L1593.31 3443.32C1591.94 3443.47 1590.57 3443.57 1589.25 3443.67C1583.9 3444.16 1578.41 3444.53 1572.39 3444.81C1570.38 3444.92 1568.37 3445.02 1566.35 3445.07C1565.88 3445.12 1565.24 3445.12 1564.6 3445.12L1559.41 3445.28C1528.9 3445.81 1502.11 3442.8 1479.77 3436.33C1474.94 3434.89 1470.68 3433.45 1466.72 3431.91C1453.9 3426.96 1443.1 3420.61 1434.64 3413.02C1433.66 3412.09 1432.72 3411.2 1431.83 3410.32C1430.75 3409.23 1429.71 3408.12 1428.71 3406.99Z" fill="#2D362E"/>
<path d="M2466.07 2699.46C2464.94 2713.63 2463.61 2727.84 2462.08 2742.11C2450.57 2849.65 2428.33 2960.46 2392.89 3067.13C2385.48 3063.6 2376.99 3060.69 2367.32 3058.49C2360.73 3057 2353.87 3056.49 2347.12 3057.06C2258.15 3064.47 2141 3104.87 2081.17 3164.13L2060.1 2958.36C2010.7 2969.61 1961.36 2967.82 1911.96 2953.05L1890.38 3164.13C1830.55 3104.87 1713.35 3064.47 1624.37 3057.06C1617.62 3056.49 1610.82 3057 1604.23 3058.49C1601.77 3059.05 1599.37 3059.66 1597.07 3060.28C1559.94 2946.45 1537.7 2828.12 1527.42 2714.24C1526.96 2709.33 1526.55 2704.42 1526.14 2699.51C1526.19 2699.46 1526.19 2699.46 1526.19 2699.46C1839.71 2836.46 2153.01 2836.66 2466.07 2699.46Z" fill="#A7C4AE"/>
<g opacity="0.55">
<path d="M1643.7 3058.59C1638.69 3057.98 1633.78 3057.47 1628.93 3057.06C1622.33 3056.49 1615.68 3056.9 1609.24 3058.39C1606.63 3058.95 1604.07 3059.61 1601.62 3060.28C1564.5 2946.45 1542.25 2828.12 1531.97 2714.24C1531.51 2709.33 1531.1 2704.43 1530.69 2699.52C1529.77 2688.32 1529.01 2677.17 1528.29 2666.07C1527.01 2645.01 1526.14 2624.19 1525.58 2603.64C1525.43 2597.7 1525.33 2591.82 1525.22 2585.94H1524.05V2585.13L1527.42 2414.18L1575.49 2180.69C1600.29 2188.98 1614.51 2214.85 1608.32 2240.27C1578.46 2363.4 1567.82 2501.16 1569.92 2648.43V2648.59C1570.17 2654.42 1570.53 2660.25 1570.89 2666.07C1571.6 2677.17 1572.37 2688.32 1573.29 2699.52C1573.7 2704.43 1574.11 2709.34 1574.57 2714.24C1584.8 2827.56 1606.89 2945.27 1643.7 3058.59Z" fill="#F5FFF7"/>
</g>
<g opacity="0.55">
<path d="M1349.73 2505C1352.79 2515.17 1357.86 2524.48 1364.55 2532.4C1373.71 2543.35 1385.83 2551.84 1399.58 2556.85C1436.15 2570.09 1478.69 2578.48 1517.14 2582.67C1521.29 2583.13 1525.33 2583.95 1529.16 2585.12V2585.94C1481.4 2585.79 1412.37 2576.89 1356.99 2556.85C1343.23 2551.84 1331.11 2543.35 1321.96 2532.4C1315.26 2524.48 1310.2 2515.17 1307.13 2505C1262.74 2356.04 1381.48 2138.4 1532.13 2028.46C1458.7 1978.66 1439.16 1910.75 1481.71 1857.16L2527.28 1855.98L2527.33 1856.03L1524.3 1857.16C1488.41 1902.37 1496.7 1957.78 1544.28 2003.91C1558.5 2017.7 1558.29 2040.52 1543.23 2053.39C1408.07 2168.9 1308.48 2366.59 1349.73 2505Z" fill="#F5FFF7"/>
</g>
<g opacity="0.55">
<path d="M1643.69 3058.59C1645.27 3058.74 1646.86 3058.95 1648.44 3059.2C1647.01 3059.56 1645.58 3059.92 1644.2 3060.28C1644 3059.71 1643.84 3059.15 1643.69 3058.59Z" fill="#F5FFF7"/>
<path d="M1642.58 3063.34L1641.79 3061.14C1641.57 3060.53 1641.4 3059.91 1641.23 3059.29L1640.25 3055.71L1643.94 3056.05C1645.57 3056.21 1647.21 3056.42 1648.85 3056.68L1661.11 3058.66L1642.58 3063.34Z" fill="#2D362E"/>
</g>
<path d="M2425.91 1959.39C2381.08 1952.76 2337.7 1951.39 2296.17 1959.12C2275.46 1963 2255.2 1968.77 2235.87 1976.97C2216.52 1985.18 2198.31 1995.89 2180.92 2007.84C2172.29 2013.91 2163.93 2020.42 2155.86 2027.3C2151.79 2030.71 2147.9 2034.3 2143.95 2037.89L2131.97 2049.14C2116.05 2064.18 2100.96 2080.02 2086.32 2096.13C2057.47 2128.57 2030.82 2163.25 2012.64 2200.8L2012.46 2201.18C2008.15 2210.08 1997.44 2213.8 1988.54 2209.5C1980.14 2205.43 1976.38 2195.57 1979.62 2187C1988.23 2164.43 1999.54 2143.39 2012.57 2123.91C2025.5 2104.31 2039.85 2085.92 2055.11 2068.52C2070.29 2051.01 2086.61 2034.67 2103.31 2018.82C2107.49 2014.86 2111.75 2010.99 2116.03 2007.14C2120.47 2003.27 2124.95 1999.37 2129.58 1995.67C2138.79 1988.2 2148.36 1981.12 2158.27 1974.52C2197.95 1948.38 2244.02 1930.18 2291.74 1925.78C2339.41 1921.59 2387.55 1931.83 2427.56 1954.55C2428.82 1955.26 2429.26 1956.85 2428.55 1958.1C2428.01 1959.06 2426.93 1959.54 2425.91 1959.39Z" fill="#2D362E"/>
<path d="M1565.53 1956.97C1563.99 1952.09 1565.17 1955.59 1564.86 1954.48L1564.97 1954.42L1565.21 1954.29L1565.69 1954.03L1566.63 1953.52L1568.54 1952.52L1572.39 1950.54C1574.93 1949.14 1577.6 1948.12 1580.22 1946.89C1585.46 1944.42 1590.89 1942.46 1596.34 1940.47C1607.25 1936.44 1618.58 1933.69 1630.05 1931.27C1653.04 1926.72 1676.89 1925.59 1700.54 1927.7C1724.24 1929.7 1747.57 1935.47 1770.02 1943.43C1792.47 1951.46 1814.06 1962.03 1834.06 1975.01C1844.08 1981.48 1853.7 1988.52 1862.98 1995.97C1867.64 1999.66 1872.16 2003.61 1876.59 2007.46C1880.86 2011.3 1885.11 2015.17 1889.27 2019.13C1905.93 2034.95 1922.21 2051.26 1937.35 2068.74C1952.57 2086.12 1966.88 2104.48 1979.77 2124.03C1992.77 2143.48 2004.05 2164.48 2012.64 2187C2016.17 2196.24 2011.54 2206.59 2002.3 2210.11C1993.57 2213.44 1983.85 2209.49 1979.83 2201.25L1979.62 2200.81C1961.48 2163.33 1934.9 2128.72 1906.13 2096.34C1891.53 2080.26 1876.48 2064.45 1860.6 2049.43L1848.64 2038.21C1844.7 2034.62 1840.87 2031.08 1836.82 2027.71C1828.79 2020.93 1820.45 2014.5 1811.78 2008.59C1794.35 1996.92 1776.04 1986.47 1756.57 1978.56C1737.13 1970.61 1716.81 1964.86 1696.05 1961.04C1675.27 1957.2 1654 1955.17 1632.37 1955.11C1621.55 1954.92 1610.66 1955.41 1599.65 1956.14C1594.17 1956.57 1588.63 1957.01 1583.09 1957.59L1574.74 1958.48L1570.55 1958.97L1568.44 1959.2L1567.38 1959.3L1566.85 1959.36L1566.58 1959.38L1566.45 1959.39C1566.05 1958.31 1567.15 1961.83 1565.53 1956.97Z" fill="#2D362E"/>
<path d="M1708.49 1921.74L1703.81 1946.65C1819.84 1968.16 1915.29 2049.84 1993.93 2180.69C2067.07 2062.91 2158.5 1978.3 2279.95 1948.1L2273.54 1910.91L2140.59 1924.91C2030.03 1996.89 1934.74 1989.92 1851.29 1921.74H1708.49Z" fill="#2D362E"/>
<path d="M1523.74 2666.07C1442.28 2666.07 1365.22 2648.89 1328.45 2613.4C1306.98 2592.74 1299.2 2565.8 1312.29 2532.4C1321.45 2543.35 1333.57 2551.84 1347.32 2556.85C1403.16 2577.05 1472.86 2585.94 1520.67 2585.94C1521.08 2612.23 1522.1 2638.97 1523.74 2666.07Z" fill="#F5FFF7"/>
<g opacity="0.55">
<path d="M1425.25 2656.72C1384.19 2648.23 1349.62 2633.86 1328.45 2613.4C1306.98 2592.74 1299.2 2565.8 1312.29 2532.4C1321.45 2543.35 1333.57 2551.84 1347.32 2556.85C1350.39 2557.97 1353.51 2559.05 1356.68 2560.02C1350.19 2587.27 1358.52 2609.77 1377.03 2627.57C1389.15 2639.28 1405.67 2648.94 1425.25 2656.72Z" fill="#F5FFF7"/>
</g>
<path d="M1523.74 2683.97C1429.72 2683.97 1354.01 2662.94 1316.02 2626.28C1287.65 2598.98 1280.59 2564.26 1295.63 2525.87C1297.94 2519.99 1303.18 2515.76 1309.42 2514.74C1315.64 2513.71 1321.97 2516.07 1326.03 2520.92C1333.2 2529.5 1342.68 2536.11 1353.45 2540.03C1410.6 2560.71 1479.26 2568.05 1520.67 2568.05C1530.45 2568.05 1538.41 2575.89 1538.57 2585.67C1538.97 2611.61 1539.99 2638.3 1541.61 2665C1541.9 2669.92 1540.16 2674.75 1536.77 2678.34C1533.39 2681.93 1528.68 2683.97 1523.74 2683.97ZM1323.75 2565.35C1324.2 2578.43 1329.86 2589.92 1340.86 2600.5C1368.97 2627.63 1430.77 2645.27 1504.81 2647.85C1504.07 2632.96 1503.51 2618.13 1503.13 2603.47C1458.5 2601.69 1395.23 2593.21 1341.23 2573.68C1335.12 2571.45 1329.27 2568.66 1323.75 2565.35Z" fill="#2D362E"/>
<path d="M1312.29 2550.31C1310.19 2550.31 1308.06 2549.93 1305.98 2549.15C1296.73 2545.66 1292.06 2535.34 1295.55 2526.09L1296.01 2524.86C1299.5 2515.61 1309.82 2510.95 1319.07 2514.43C1328.32 2517.92 1332.99 2528.25 1329.5 2537.5L1329.04 2538.72C1326.34 2545.89 1319.52 2550.31 1312.29 2550.31Z" fill="#2D362E"/>
<path d="M1502.78 2586.2C1500.4 2550.19 1500.6 2514.05 1502.37 2477.97C1503.25 2459.94 1504.63 2441.91 1506.54 2423.94C1507.57 2414.95 1508.42 2405.96 1509.58 2396.99L1513.51 2370.14L1518.01 2343.37L1523.48 2316.77C1525.56 2307.94 1527.39 2299.08 1529.78 2290.33C1532.24 2281.59 1534.47 2272.83 1537.1 2264.15C1547.81 2229.53 1560.85 2195.36 1579.1 2164C1579.82 2162.76 1581.4 2162.34 1582.63 2163.06C1583.63 2163.64 1584.09 2164.79 1583.86 2165.86L1583.85 2165.89C1576.01 2200.91 1569.24 2235.43 1564 2270.29C1562.51 2278.95 1561.42 2287.71 1560.12 2296.39L1556.61 2322.52C1554.54 2339.98 1552.51 2357.43 1550.71 2374.91C1549.14 2392.42 1547.6 2409.92 1546.28 2427.44C1545.48 2436.19 1545.26 2445 1544.57 2453.76C1543.87 2462.52 1543.5 2471.31 1543.04 2480.09C1541.13 2515.22 1540.06 2550.4 1538.57 2585.69L1538.56 2585.78C1538.15 2595.67 1529.79 2603.34 1519.9 2602.93C1510.7 2602.53 1503.4 2595.18 1502.78 2586.2Z" fill="#2D362E"/>
<path d="M2413.16 2163.99C2430.11 2193.7 2442.81 2225.78 2453.06 2258.41C2463.26 2291.1 2470.99 2324.51 2476.73 2358.19C2482.47 2391.87 2486.55 2425.82 2488.69 2459.87C2490.88 2493.9 2491.51 2528.04 2489.64 2562.07C2489.1 2571.95 2480.65 2579.53 2470.76 2578.99C2461.57 2578.48 2454.37 2571.04 2453.85 2562.06L2448.39 2462.43C2446.26 2429.3 2443.89 2396.19 2440.48 2363.18C2437.06 2330.17 2432.98 2297.22 2427.73 2264.38C2422.49 2231.51 2416.15 2198.84 2408.42 2165.9L2408.41 2165.87C2408.08 2164.48 2408.95 2163.09 2410.33 2162.76C2411.47 2162.49 2412.61 2163.03 2413.16 2163.99Z" fill="#2D362E"/>
<path d="M1680.8 2089.89C1652.24 2087.49 1623.61 2083.11 1595.3 2075.77C1567.03 2068.41 1539.03 2058.14 1512.4 2043.26L1512.32 2043.22C1503.65 2038.38 1500.55 2027.43 1505.39 2018.76C1510.23 2010.09 1521.18 2006.99 1529.85 2011.83C1530.78 2012.35 1531.72 2013.01 1532.53 2013.66C1553.07 2030.62 1576.9 2044.82 1602.16 2056.5C1627.46 2068.2 1654.23 2077.46 1681.67 2084.85C1683.04 2085.21 1683.86 2086.62 1683.5 2087.99C1683.18 2089.21 1682.02 2089.99 1680.8 2089.89Z" fill="#2D362E"/>
<path d="M2081.17 3182.03C2079.14 3182.03 2077.11 3181.69 2075.13 3180.98C2068.65 3178.66 2064.07 3172.81 2063.36 3165.96L2044.29 2979.65C2005.51 2985.88 1966.43 2984.55 1927.64 2975.68L1908.19 3165.95C1907.49 3172.81 1902.91 3178.66 1896.42 3180.98C1889.94 3183.31 1882.69 3181.7 1877.79 3176.85C1819.38 3118.99 1705.35 3081.76 1622.89 3074.89C1618.03 3074.49 1613.08 3074.84 1608.15 3075.95C1605.98 3076.45 1603.78 3077.01 1601.67 3077.57C1592.48 3080.02 1583 3074.86 1580.05 3065.83C1544.39 2956.49 1520.69 2838.74 1509.6 2715.85C1509.58 2715.67 1509.57 2715.48 1509.56 2715.3C1508.22 2700.73 1507.02 2684.99 1505.88 2667.22C1504.59 2645.82 1503.67 2624.46 1503.13 2603.47C1458.5 2601.69 1395.23 2593.21 1341.23 2573.68C1324.51 2567.58 1309.77 2557.29 1298.57 2543.89C1290.26 2534.06 1284.11 2522.69 1280.33 2510.16C1234.46 2356.23 1350.76 2142.9 1492.85 2028.62C1459.3 2000.8 1438.38 1967.86 1433.21 1934.12C1428.44 1902.94 1437.02 1872.49 1458.03 1846.03C1461.41 1841.76 1466.57 1839.27 1472.02 1839.26L2517.59 1838.08C2517.6 1838.08 2517.6 1838.08 2517.61 1838.08C2523 1838.08 2528.1 1840.51 2531.5 1844.68C2553.12 1871.26 2562.11 1901.94 2557.49 1933.41C2552.65 1966.42 2532.75 1998.67 2500.65 2026.18C2722.36 2152.28 2823.25 2257.02 2817.69 2354.8C2813.48 2428.9 2748.17 2492.19 2618.16 2548.06L2619.49 2570.09C2620.14 2580.96 2616.1 2591.6 2608.41 2599.3C2600.74 2606.97 2590.14 2610.97 2579.34 2610.36C2549.18 2608.67 2519.02 2601.77 2489.41 2589.8C2488.56 2641.04 2485.36 2692.79 2479.87 2744.02C2467.51 2859.57 2443.96 2970.18 2409.88 3072.77C2408.26 3077.64 2404.63 3081.58 2399.91 3083.6C2395.19 3085.61 2389.83 3085.5 2385.2 3083.29C2378.85 3080.26 2371.5 3077.79 2363.35 3075.94C2358.47 3074.84 2353.49 3074.49 2348.62 3074.89C2266.19 3081.76 2152.18 3118.99 2093.77 3176.85C2090.36 3180.23 2085.81 3182.03 2081.17 3182.03ZM2060.1 2940.46C2063.81 2940.46 2067.47 2941.62 2070.54 2943.82C2074.7 2946.81 2077.38 2951.44 2077.91 2956.54L2095.51 3128.44C2163.6 3077.78 2267.94 3045.69 2345.64 3039.22C2354.14 3038.51 2362.76 3039.12 2371.25 3041.02C2374.82 3041.84 2378.3 3042.75 2381.66 3043.76C2411.85 2948.6 2432.9 2846.58 2444.28 2740.21C2450.63 2680.97 2453.85 2621.04 2453.85 2562.06C2453.85 2555.83 2457.09 2550.05 2462.4 2546.8C2467.71 2543.54 2474.34 2543.28 2479.88 2546.12C2513.21 2563.13 2547.36 2572.72 2581.4 2574.62C2582.1 2574.63 2582.63 2574.45 2583.09 2573.99C2583.42 2573.66 2583.81 2573.08 2583.76 2572.23L2581.67 2537.58C2581.21 2529.96 2585.63 2522.88 2592.69 2519.96C2714.84 2469.38 2778.52 2413.12 2781.95 2352.76C2786.7 2269.22 2678.21 2165.37 2459.49 2044.12C2454.05 2041.1 2450.57 2035.48 2450.29 2029.27C2450.01 2023.06 2452.97 2017.15 2458.11 2013.66C2494.95 1988.64 2517.67 1958.3 2522.08 1928.22C2524.87 1909.13 2520.37 1890.89 2508.69 1873.89L1481.13 1875.05C1469.93 1891.86 1465.72 1909.88 1468.6 1928.7C1473.18 1958.63 1495.88 1988.8 1532.51 2013.65C1537.33 2016.92 1540.26 2022.33 1540.36 2028.16C1540.46 2033.98 1537.72 2039.49 1533.01 2042.92C1460.73 2095.67 1395.07 2174.81 1352.87 2260.04C1308.7 2349.24 1295.11 2434.42 1314.62 2499.89C1316.96 2507.64 1320.78 2514.72 1325.97 2520.85C1333.2 2529.5 1342.68 2536.11 1353.45 2540.03C1410.6 2560.7 1479.26 2568.05 1520.67 2568.05C1530.45 2568.05 1538.41 2575.89 1538.57 2585.66C1538.97 2611.6 1539.99 2638.29 1541.61 2664.99C1542.73 2682.57 1543.92 2698.13 1545.25 2712.5C1545.26 2712.7 1545.28 2712.9 1545.29 2713.1C1555.64 2827.46 1577.14 2937.18 1609.22 3039.51C1614.79 3038.86 1620.35 3038.75 1625.87 3039.22C1703.59 3045.7 1807.94 3077.79 1876.04 3128.44L1894.16 2951.23C1894.7 2945.92 1897.58 2941.13 1902.02 2938.16C1906.46 2935.19 1911.99 2934.37 1917.09 2935.9C1963.28 2949.71 2010.06 2951.4 2056.13 2940.91C2057.44 2940.61 2058.78 2940.46 2060.1 2940.46Z" fill="#2D362E"/>
<path d="M2599.53 2554.41C2594.9 2554.41 2590.27 2552.62 2586.77 2549.06C2586.07 2548.37 2551.74 2515.03 2464.32 2489.83C2454.82 2487.09 2449.34 2477.17 2452.08 2467.67C2454.82 2458.18 2464.74 2452.7 2474.24 2455.43C2572.42 2483.74 2610.79 2522.41 2612.37 2524.04C2619.26 2531.13 2619.09 2542.47 2612 2549.35C2608.52 2552.73 2604.03 2554.41 2599.53 2554.41Z" fill="#2D362E"/>
<path d="M2443.58 2347.97C2448.14 2338.59 2455.57 2332.44 2463.03 2327.32C2470.5 2322.14 2478.07 2317.67 2485.76 2313.63C2493.44 2309.58 2501.21 2305.93 2509.09 2302.62C2516.98 2299.32 2524.94 2296.28 2533.03 2293.59C2534.41 2293.13 2535.9 2293.87 2536.37 2295.25C2536.69 2296.2 2536.42 2297.22 2535.78 2297.91L2518.38 2316.14C2512.66 2322.18 2507.02 2328.16 2501.63 2334.19C2496.27 2340.25 2491.1 2346.3 2486.51 2352.4C2481.96 2358.57 2477.92 2364.42 2472.9 2368.5L2471.21 2369.88C2463.47 2376.17 2452.09 2374.99 2445.81 2367.25C2441.25 2361.63 2440.63 2354.08 2443.58 2347.97Z" fill="#2D362E"/>
<path d="M2594.4 2678.86C2586.07 2678.86 2578.62 2673.02 2576.88 2664.55L2571.82 2639.8C2569.84 2630.11 2576.09 2620.65 2585.77 2618.67C2595.46 2616.71 2604.91 2622.94 2606.89 2632.62L2611.95 2657.37C2613.93 2667.06 2607.69 2676.51 2598 2678.49C2596.79 2678.74 2595.59 2678.86 2594.4 2678.86Z" fill="#2D362E"/>
<path d="M1527.42 2714.14C1527.42 2714.19 1527.42 2714.19 1527.42 2714.24C1527.32 2772.59 1504.87 2802.81 1477.11 2802.3C1481.86 2840.24 1473.47 2868.21 1450.57 2885.14C1433.13 2898.02 1410.07 2900.58 1389.41 2893.98C1265.76 2854.71 1278.6 2718.95 1328.45 2613.4C1365.22 2648.89 1442.28 2666.07 1523.74 2666.07C1524.76 2682.03 1525.94 2697.98 1527.42 2714.14Z" fill="#F5FFF7"/>
<path d="M1411.76 2901.09C1403.98 2901.09 1396.06 2899.88 1388.32 2897.4C1346.56 2884.14 1317.5 2859.31 1301.93 2823.59C1278.53 2769.89 1287.01 2692.72 1325.21 2611.87C1325.7 2610.82 1326.67 2610.08 1327.81 2609.87C1328.95 2609.67 1330.12 2610.01 1330.95 2610.82C1364.46 2643.17 1436.54 2662.48 1523.74 2662.48C1525.63 2662.48 1527.2 2663.95 1527.32 2665.84C1528.46 2683.61 1529.67 2699.3 1531 2713.81C1531.01 2713.92 1531.01 2714.03 1531.01 2714.14V2714.24C1530.95 2750.14 1522.34 2778.31 1506.76 2793.57C1499.38 2800.8 1490.58 2804.97 1481.11 2805.76C1485.02 2843.54 1475.47 2871.21 1452.7 2888.03C1441.06 2896.63 1426.67 2901.09 1411.76 2901.09ZM1329.64 2619.36C1294.08 2696.71 1286.37 2769.89 1308.52 2820.73C1323.22 2854.46 1350.8 2877.95 1390.49 2890.56C1410.91 2897.08 1432.57 2893.97 1448.43 2882.25C1469.73 2866.51 1478.18 2839.76 1473.54 2802.75C1473.41 2801.71 1473.74 2800.67 1474.43 2799.9C1475.13 2799.12 1476.09 2798.55 1477.17 2798.71C1486.34 2798.87 1494.61 2795.42 1501.73 2788.44C1515.91 2774.54 1523.76 2748.21 1523.83 2714.3C1522.58 2700.69 1521.45 2686.05 1520.37 2669.65C1435.87 2669.17 1365.34 2650.52 1329.64 2619.36Z" fill="#2D362E"/>
<g opacity="0.55">
<path d="M1434.41 2893.63C1420.14 2898.74 1404.14 2898.69 1389.41 2893.98C1265.76 2854.71 1278.6 2718.95 1328.45 2613.4C1337.86 2622.51 1349.98 2630.43 1364.15 2637.13C1323.6 2738.07 1320.89 2856.86 1434.41 2893.63Z" fill="#F5FFF7"/>
</g>
<path d="M1411.74 2915.39C1402.51 2915.39 1393.13 2913.96 1383.96 2911.03C1338.13 2896.47 1306.11 2868.98 1288.82 2829.31C1263.77 2771.83 1272.32 2690.34 1312.27 2605.76C1314.73 2600.54 1319.56 2596.84 1325.23 2595.8C1330.91 2594.76 1336.73 2596.52 1340.88 2600.52C1371.33 2629.92 1441.4 2648.18 1523.74 2648.18C1533.18 2648.18 1541 2655.51 1541.6 2664.93C1542.73 2682.57 1543.92 2698.13 1545.24 2712.5C1545.3 2713.05 1545.32 2713.59 1545.32 2714.14V2714.24C1545.25 2754.6 1535.38 2785.56 1516.77 2803.79C1510.62 2809.82 1503.68 2814.25 1496.21 2816.98C1497.35 2853.78 1485.61 2881.5 1461.2 2899.53C1447.07 2909.97 1429.69 2915.39 1411.74 2915.39ZM1335.55 2641.67C1308.27 2708.46 1302.93 2772.1 1321.63 2815.01C1334.61 2844.79 1359.24 2865.62 1394.82 2876.92C1410.9 2882.07 1427.75 2879.74 1439.93 2870.74C1457 2858.13 1463.35 2836.47 1459.35 2804.52C1458.7 2799.37 1460.32 2794.19 1463.79 2790.33C1467.27 2786.47 1472.24 2784.4 1477.43 2784.4C1482.69 2784.42 1487.38 2782.48 1491.72 2778.23C1502.89 2767.28 1509.37 2744.23 1509.52 2714.93C1508.63 2705.15 1507.8 2694.84 1507 2683.74C1434.49 2681.76 1374.15 2666.85 1335.55 2641.67Z" fill="#2D362E"/>
<path d="M1477.1 2820.17C1467.22 2820.17 1459.21 2812.18 1459.21 2802.3V2802.25C1459.21 2792.36 1467.22 2784.35 1477.1 2784.35C1486.99 2784.35 1495 2792.36 1495 2802.25C1495 2812.13 1486.99 2820.17 1477.1 2820.17Z" fill="#2D362E"/>
<path d="M1527.42 2731.88C1517.54 2731.88 1509.52 2724.02 1509.52 2714.14V2713.83C1509.52 2703.95 1517.54 2695.94 1527.42 2695.94C1537.31 2695.94 1545.32 2703.95 1545.32 2713.83C1545.32 2723.72 1537.31 2731.88 1527.42 2731.88Z" fill="#2D362E"/>
<path d="M1476.76 2820.19C1470.29 2820.9 1463.8 2819.86 1458.11 2817.76C1452.46 2815.6 1447.34 2812.67 1443.1 2809.08C1434.47 2802.05 1427.89 2794.06 1422.63 2785.71C1417.31 2777.39 1413.29 2768.7 1410.04 2759.94C1406.86 2751.14 1404.58 2742.18 1402.92 2733.22C1402.66 2731.8 1403.6 2730.43 1405.02 2730.16C1406.01 2729.98 1406.97 2730.37 1407.56 2731.1L1407.6 2731.16C1413.2 2738.17 1418.75 2744.94 1424.58 2751.21C1430.44 2757.43 1436.51 2763.17 1442.75 2768.07C1449.02 2772.9 1455.49 2776.92 1461.73 2779.24C1464.86 2780.41 1467.72 2781.25 1470.32 2782.03C1472.93 2782.83 1475.16 2783.28 1477.45 2784.4L1482.59 2786.92C1491.31 2791.2 1494.91 2801.73 1490.64 2810.45C1487.91 2816.03 1482.5 2819.52 1476.76 2820.19Z" fill="#2D362E"/>
<path d="M2580.41 2756.58C2557.86 2786.85 2499 2795.65 2468.67 2753.05C2466.27 2749.73 2464.07 2746.1 2462.08 2742.11C2463.61 2727.84 2464.94 2713.63 2466.07 2699.46C2466.37 2696.14 2466.63 2692.82 2466.83 2689.49C2467.24 2684.64 2467.6 2679.78 2467.91 2674.97C2468.47 2666.69 2468.98 2658.45 2469.39 2650.22C2469.75 2643.42 2470.11 2636.67 2470.36 2629.92C2470.36 2629.36 2470.41 2628.85 2470.41 2628.28C2470.67 2622.2 2470.87 2616.11 2471.03 2610.08C2471.18 2606.14 2471.28 2602.2 2471.34 2598.27C2471.59 2586.1 2471.74 2574.03 2471.74 2562.06C2494.3 2573.57 2516.59 2581.65 2538.73 2586.66C2552.69 2589.83 2566.55 2591.72 2580.41 2592.49L2589.36 2636.21C2732.02 2628.39 2669.33 2797.59 2580.41 2756.58Z" fill="#F5FFF7"/>
<path d="M2525.13 2785.77C2524.86 2785.77 2524.59 2785.77 2524.32 2785.76C2500.43 2785.51 2479.63 2774.63 2465.75 2755.14C2463.23 2751.65 2460.91 2747.8 2458.87 2743.72C2458.56 2743.1 2458.44 2742.41 2458.51 2741.73C2460.03 2727.53 2461.37 2713.22 2462.49 2699.18C2462.8 2695.85 2463.05 2692.56 2463.25 2689.27C2463.66 2684.36 2464.02 2679.52 2464.32 2674.74C2464.89 2666.46 2465.4 2658.25 2465.8 2650.04L2465.83 2649.52C2466.18 2642.91 2466.53 2636.35 2466.77 2629.79L2466.82 2628.28C2467.08 2622.07 2467.28 2616 2467.44 2609.99C2467.59 2606.03 2467.69 2602.13 2467.74 2598.22C2468.02 2585.11 2468.15 2573.3 2468.15 2562.06C2468.15 2560.81 2468.8 2559.65 2469.87 2559C2470.93 2558.35 2472.26 2558.3 2473.37 2558.86C2495.16 2569.98 2517.41 2578.15 2539.52 2583.16C2552.94 2586.2 2566.76 2588.14 2580.6 2588.9C2582.23 2588.99 2583.59 2590.17 2583.92 2591.77L2592.25 2632.48C2646.94 2630.45 2666 2654.48 2672.51 2669.23C2683.13 2693.27 2675.31 2726.01 2653.91 2747.07C2633.76 2766.9 2607.5 2771.9 2581.5 2760.99C2568.89 2776.17 2547.18 2785.77 2525.13 2785.77ZM2465.76 2741.43C2467.51 2744.82 2469.47 2748.02 2471.59 2750.95C2484.11 2768.55 2502.86 2778.35 2524.4 2778.58C2545.43 2778.72 2566.43 2769.33 2577.53 2754.44C2578.53 2753.08 2580.36 2752.6 2581.91 2753.32C2605.88 2764.38 2630.29 2760.23 2648.88 2741.95C2668.23 2722.91 2675.41 2693.54 2665.94 2672.13C2655.78 2649.13 2628.63 2637.64 2589.55 2639.79C2587.7 2639.9 2586.2 2638.67 2585.84 2636.93L2577.44 2595.91C2564.12 2595.02 2550.85 2593.09 2537.94 2590.16C2517.01 2585.42 2495.98 2577.93 2475.32 2567.86C2475.29 2577.41 2475.15 2587.44 2474.92 2598.34C2474.87 2602.28 2474.77 2606.25 2474.62 2610.21C2474.47 2616.23 2474.26 2622.33 2474 2628.43L2473.96 2629.92C2473.7 2636.65 2473.35 2643.25 2473.01 2649.9L2472.98 2650.41C2472.57 2658.65 2472.06 2666.91 2471.49 2675.21C2471.18 2680.03 2470.82 2684.91 2470.41 2689.8C2470.21 2693.07 2469.96 2696.44 2469.64 2699.8C2468.55 2713.51 2467.25 2727.52 2465.76 2741.43Z" fill="#2D362E"/>
<g opacity="0.55">
<path d="M1782.24 2532.83C1778.38 2612.04 1734.49 2670.2 1666.31 2701L1655.36 2748.3C1643.65 2744.52 1631.94 2740.58 1620.18 2736.44L1636.49 2666.07C1713.25 2631.4 1759.22 2562.06 1751.96 2467.05C1919.68 2483.21 2090.68 2486.28 2245.42 2472.63C2245.26 2485.41 2245.72 2497.84 2246.9 2509.85C2109.79 2520.05 1961.08 2517.59 1813.94 2504.92C1797.37 2503.49 1783.05 2516.22 1782.24 2532.83Z" fill="#F5FFF7"/>
</g>
<path d="M2372.28 2736.44C2125.65 2821.78 1875.18 2826.59 1620.18 2736.44H2372.28Z" fill="#ABEEAE"/>
<path d="M2525.21 2800.07C2522.53 2800.07 2519.84 2799.95 2517.15 2799.71C2486.46 2797.01 2460.55 2778.95 2446.08 2750.14C2444.54 2747.07 2443.92 2743.62 2444.28 2740.2C2450.63 2680.97 2453.84 2621.04 2453.84 2562.06C2453.84 2555.83 2457.08 2550.05 2462.4 2546.8C2467.71 2543.54 2474.33 2543.28 2479.88 2546.12C2513.2 2563.13 2547.36 2572.72 2581.4 2574.62C2589.52 2575.07 2596.31 2580.94 2597.94 2588.9L2603.92 2618.12C2657.84 2619.7 2678.15 2646.58 2685.59 2663.44C2698.74 2693.2 2689.84 2731.78 2663.95 2757.27C2642.24 2778.63 2613.62 2785.8 2585.43 2777.55C2569.85 2791.76 2547.87 2800.07 2525.21 2800.07ZM2480.46 2738.45C2491.86 2757.59 2508.2 2763 2520.29 2764.06C2538.08 2765.64 2556.91 2758.15 2566.06 2745.88C2571.12 2739.1 2580.22 2736.79 2587.9 2740.33C2612.9 2751.86 2630.55 2739.91 2638.84 2731.75C2653.86 2716.97 2659.89 2693.82 2652.86 2677.91C2645.27 2660.75 2623.07 2652.27 2590.33 2654.08C2581.49 2654.58 2573.6 2648.49 2571.82 2639.8L2565.56 2609.22C2539.98 2606.44 2514.5 2599.94 2489.41 2589.79C2488.59 2639.18 2485.59 2689.04 2480.46 2738.45Z" fill="#2D362E"/>
<path d="M2572.91 2772.83C2558.83 2763.4 2548.55 2751.55 2540.33 2739.29C2532.09 2727 2525.92 2714.08 2520.66 2701.08C2520.13 2699.75 2520.77 2698.24 2522.1 2697.7C2523.12 2697.29 2524.25 2697.57 2524.96 2698.33L2524.99 2698.36C2534.41 2708.4 2544.4 2717.7 2555.11 2725.14C2565.73 2732.62 2577.15 2738.16 2587.91 2740.33C2597.85 2742.33 2604.29 2752.02 2602.29 2761.97C2600.28 2771.91 2590.59 2778.35 2580.65 2776.35C2578.25 2775.86 2576.05 2774.93 2574.13 2773.65L2572.91 2772.83Z" fill="#2D362E"/>
<path d="M1996.49 2819.75C1837.08 2819.75 1677.56 2785.12 1519.03 2715.87C1509.97 2711.91 1505.84 2701.36 1509.79 2692.3C1513.75 2683.24 1524.29 2679.1 1533.36 2683.06C1840.9 2817.42 2152.29 2817.42 2458.88 2683.07C2467.95 2679.1 2478.5 2683.23 2482.46 2692.28C2486.43 2701.34 2482.3 2711.89 2473.25 2715.86C2315.2 2785.12 2155.9 2819.75 1996.49 2819.75Z" fill="#2D362E"/>
<path d="M1561.53 2944.33C1555.2 2944.33 1549.66 2939.7 1548.69 2933.24C1547.63 2926.14 1552.52 2919.52 1559.63 2918.46C1627.79 2908.26 1717.52 2874.84 1757.9 2773.57C1760.56 2766.9 1768.11 2763.64 1774.8 2766.31C1781.47 2768.97 1784.72 2776.54 1782.06 2783.21C1746.99 2871.17 1669.36 2928.33 1563.48 2944.18C1562.82 2944.28 1562.18 2944.33 1561.53 2944.33Z" fill="#2D362E"/>
<path d="M1550.24 2890.29C1544.67 2890.29 1539.52 2886.69 1537.81 2881.08C1535.71 2874.21 1539.58 2866.95 1546.45 2864.85C1618.58 2842.82 1673.06 2804.86 1699.87 2757.95C1703.43 2751.72 1711.37 2749.55 1717.61 2753.11C1723.85 2756.68 1726.01 2764.62 1722.45 2770.86C1692.34 2823.54 1632.54 2865.75 1554.04 2889.72C1552.78 2890.11 1551.5 2890.29 1550.24 2890.29Z" fill="#2D362E"/>
<path d="M2430.98 2944.33C2430.34 2944.33 2429.69 2944.28 2429.04 2944.18C2323.15 2928.33 2245.53 2871.17 2210.45 2783.21C2207.79 2776.54 2211.05 2768.97 2217.72 2766.31C2224.4 2763.66 2231.95 2766.91 2234.61 2773.58C2274.99 2874.84 2364.72 2908.26 2432.88 2918.46C2439.99 2919.52 2444.88 2926.14 2443.82 2933.25C2442.86 2939.7 2437.31 2944.33 2430.98 2944.33Z" fill="#2D362E"/>
<path d="M2442.27 2890.29C2441.02 2890.29 2439.74 2890.11 2438.47 2889.72C2359.97 2865.75 2300.16 2823.54 2270.06 2770.86C2266.5 2764.62 2268.66 2756.68 2274.9 2753.11C2281.13 2749.55 2289.08 2751.72 2292.64 2757.95C2319.45 2804.86 2373.93 2842.82 2446.07 2864.85C2452.94 2866.95 2456.8 2874.21 2454.71 2881.08C2452.99 2886.68 2447.84 2890.29 2442.27 2890.29Z" fill="#2D362E"/>
<path d="M2136.2 2925.73C2113.83 2942.49 2092.22 2960.41 2066.12 2975.22L2065.72 2975.45C2056.95 2980.42 2045.81 2977.35 2040.84 2968.58C2035.86 2959.81 2038.94 2948.67 2047.7 2943.7C2049.72 2942.56 2051.92 2941.83 2054.08 2941.51C2080.03 2937.72 2106.91 2928.87 2133.93 2921.15C2135.31 2920.75 2136.75 2921.55 2137.14 2922.93C2137.45 2924 2137.04 2925.1 2136.2 2925.73Z" fill="#2D362E"/>
<path d="M1716.21 3413.27C1599.11 3454.74 1456.85 3456.17 1422.7 3394.09C1418.71 3374.96 1419.27 3355.64 1427.86 3337.28C1432.26 3327.77 1437.88 3318.82 1444.28 3310.12C1444.28 3310.12 1444.33 3310.12 1444.33 3310.07C1444.94 3309.77 1445.25 3309.61 1445.25 3309.61C1495 3245.64 1685.02 3305.93 1716.21 3413.27Z" fill="#F5FFF7"/>
<path d="M1552.43 3445.31C1491.12 3445.31 1439.71 3430.31 1420.45 3395.32L1420.19 3394.61C1415.7 3373.05 1417.5 3353.39 1425.55 3336.2C1429.57 3327.48 1434.88 3318.65 1441.77 3309.22V3308.5L1442.61 3308.08L1442.98 3307.57H1443.6C1462.73 3283.51 1501.91 3275.14 1551.25 3284.57C1619.78 3297.69 1699.29 3345.86 1718.67 3412.55L1719.34 3414.87L1717.07 3415.68C1664.19 3434.4 1604.71 3445.31 1552.43 3445.31ZM1425.12 3393.19C1459.59 3454.89 1600.72 3450.83 1713.06 3411.66C1693.1 3348.15 1616.49 3302.27 1550.29 3289.6C1503.29 3280.6 1464.77 3288.67 1447.27 3311.18L1446.88 3311.65V3312.63L1445.59 3312.66C1439.06 3321.66 1434.01 3330.07 1430.18 3338.35C1422.55 3354.66 1420.89 3372.6 1425.12 3393.19Z" fill="#2D362E"/>
<path d="M1903.03 2968.55C1889.26 2954.65 1872.17 2941.95 1856.06 2928.29C1854.95 2927.34 1854.81 2925.68 1855.76 2924.57C1856.41 2923.81 1857.41 2923.51 1858.33 2923.7C1878.71 2928.11 1899.36 2931.04 1920.9 2937.54L1921.56 2937.74C1931.37 2940.7 1936.93 2951.05 1933.97 2960.86C1931.01 2970.67 1920.66 2976.22 1910.85 2973.26C1907.81 2972.34 1905.12 2970.65 1903.03 2968.55Z" fill="#2D362E"/>
<path d="M1891.79 3307.17C1876.99 3307.17 1862.63 3301.12 1852.09 3289.92C1791.35 3225.35 1689.31 3183.62 1579.12 3178.28C1559.05 3177.3 1540.78 3166.5 1530.26 3149.36C1519.95 3132.58 1518.58 3111.89 1526.58 3094.02C1534.06 3077.15 1551.54 3054.56 1592.2 3043.05C1594.97 3042.31 1597.57 3041.65 1600.24 3041.04C1608.79 3039.12 1617.4 3038.52 1625.87 3039.22C1714.77 3046.63 1838.5 3087.54 1902.98 3151.42C1937.79 3185.91 1952.43 3224.4 1945.31 3262.72C1941.55 3282.96 1926.97 3299.14 1907.26 3304.93C1902.15 3306.44 1896.94 3307.17 1891.79 3307.17ZM1618.99 3074.73C1615.39 3074.73 1611.76 3075.14 1608.15 3075.95C1605.98 3076.45 1603.78 3077.01 1601.67 3077.57C1580.34 3083.61 1565.58 3094.36 1559.28 3108.59C1556.04 3115.83 1556.59 3123.84 1560.76 3130.64C1565.15 3137.79 1572.47 3142.12 1580.85 3142.53C1700.08 3148.31 1811.22 3194.24 1878.16 3265.39C1883.14 3270.68 1890.24 3272.62 1897.16 3270.59C1900.43 3269.63 1908.24 3266.3 1910.11 3256.19C1910.11 3256.19 1910.11 3256.18 1910.11 3256.18C1915.04 3229.68 1904.16 3202.98 1877.79 3176.85C1819.38 3118.99 1705.35 3081.76 1622.89 3074.89C1621.6 3074.78 1620.29 3074.73 1618.99 3074.73Z" fill="#2D362E"/>
<path d="M1617.42 3539.23C1592.79 3539.23 1568.74 3536.79 1546.15 3531.72C1485.22 3518.03 1441.79 3486.59 1420.54 3440.77C1400.36 3397.24 1397.62 3360.91 1412.17 3329.7C1425.79 3300.51 1448.26 3277.15 1472.05 3252.42C1500.62 3222.73 1530.17 3192.02 1544.6 3149.48C1547.78 3140.12 1557.94 3135.11 1567.3 3138.29C1576.66 3141.46 1581.68 3151.63 1578.5 3160.99C1561.5 3211.08 1527.68 3246.23 1497.85 3277.24C1476.18 3299.76 1455.71 3321.04 1444.61 3344.83C1434.66 3366.18 1437.33 3391.88 1453.02 3425.71C1473.73 3470.37 1519.36 3489.01 1553.99 3496.79C1646.08 3517.48 1769.97 3487.71 1842.17 3427.54C1861.43 3411.49 1872.48 3387.97 1872.48 3363.02V3289.24C1872.48 3279.36 1880.5 3271.35 1890.38 3271.35C1900.27 3271.35 1908.28 3279.36 1908.28 3289.24V3363.02C1908.28 3398.63 1892.53 3432.17 1865.08 3455.04C1801.57 3507.97 1705.72 3539.23 1617.42 3539.23Z" fill="#2D362E"/>
<path d="M1553.25 3458.11C1476.31 3458.11 1423.14 3435.11 1406.14 3393.89C1402.91 3386.06 1406.64 3377.09 1414.47 3373.86C1422.31 3370.64 1431.27 3374.36 1434.51 3382.19C1447.38 3413.4 1497.89 3430.19 1569.68 3427.07C1690.65 3421.82 1837.18 3362.11 1862.5 3281.58C1865.04 3273.49 1873.64 3269 1881.73 3271.55C1889.81 3274.09 1894.31 3282.7 1891.76 3290.78C1861.64 3386.61 1701.81 3452.05 1571.01 3457.72C1564.96 3457.98 1559.03 3458.11 1553.25 3458.11Z" fill="#2D362E"/>
<path d="M1716.28 3428.75C1709.62 3428.75 1703.49 3424.38 1701.55 3417.67C1684.26 3357.87 1611.21 3314.3 1547.98 3302.16C1505.73 3294.06 1471.86 3300.35 1457.36 3319.01C1452.16 3325.7 1442.52 3326.9 1435.83 3321.7C1429.14 3316.5 1427.94 3306.86 1433.14 3300.17C1455.19 3271.81 1499.16 3261.54 1553.77 3272.03C1623.94 3285.5 1709.34 3334.16 1731.02 3409.15C1733.38 3417.28 1728.69 3425.79 1720.55 3428.14C1719.13 3428.55 1717.69 3428.75 1716.28 3428.75Z" fill="#2D362E"/>
<path d="M1659.58 3236.03C1657.49 3236.03 1655.38 3235.52 1653.42 3234.47C1611.45 3211.82 1542.75 3215.34 1542.07 3215.38C1534.88 3215.87 1528.76 3210.3 1528.36 3203.13C1527.96 3195.96 1533.44 3189.82 1540.61 3189.42C1543.71 3189.24 1617.27 3185.42 1665.77 3211.58C1672.09 3214.99 1674.44 3222.88 1671.04 3229.2C1668.68 3233.55 1664.2 3236.03 1659.58 3236.03Z" fill="#2D362E"/>
<path d="M1625.04 3271.68C1623.22 3271.68 1621.38 3271.3 1619.62 3270.49C1576.29 3250.58 1507.96 3258.49 1507.28 3258.57C1500.16 3259.45 1493.67 3254.35 1492.81 3247.22C1491.95 3240.09 1497.03 3233.62 1504.16 3232.75C1507.24 3232.38 1580.41 3223.85 1630.48 3246.86C1637 3249.86 1639.86 3257.58 1636.86 3264.1C1634.67 3268.87 1629.96 3271.68 1625.04 3271.68Z" fill="#2D362E"/>
<path d="M2409.97 3155.24C2404.5 3158.25 2398.31 3160.09 2391.56 3160.4C2279.73 3165.82 2171.37 3208.62 2106.38 3277.65C2102.8 3281.44 2098.71 3284.3 2094.41 3286.14C2090.17 3288.09 2085.67 3289.06 2081.17 3289.21C2064.19 3289.88 2047.37 3278.73 2043.84 3259.45C2037.35 3224.47 2052.84 3192.21 2081.17 3164.13C2141 3104.87 2258.15 3064.47 2347.13 3057.06C2353.88 3056.49 2360.73 3057.01 2367.33 3058.49C2376.99 3060.69 2385.48 3063.6 2392.89 3067.13C2410.89 3075.57 2422.5 3087.58 2428.64 3101.34C2437.94 3122.2 2428.38 3145.21 2409.97 3155.24Z" fill="#F5FFF7"/>
<path d="M2079.79 3291.79C2063.34 3291.79 2045.2 3281.06 2041.33 3259.91C2035.09 3226.35 2047.89 3193.51 2079.37 3162.32C2141.25 3101.02 2260.8 3061.68 2346.91 3054.51C2353.86 3053.92 2360.92 3054.43 2367.89 3055.99C2377.5 3058.18 2386.28 3061.15 2393.99 3064.82C2411.74 3073.14 2424.18 3085.08 2430.97 3100.3C2440.31 3121.24 2431.62 3146.36 2411.2 3157.48C2405.18 3160.8 2398.61 3162.64 2391.68 3162.95C2277.65 3168.48 2171.69 3212.01 2108.24 3279.41C2104.45 3283.42 2100.14 3286.47 2095.42 3288.49C2091.07 3290.49 2086.28 3291.6 2081.25 3291.77C2080.77 3291.79 2080.28 3291.79 2079.79 3291.79ZM2352.55 3059.39C2350.81 3059.39 2349.07 3059.46 2347.34 3059.6C2262.15 3066.7 2143.98 3105.51 2082.97 3165.95C2052.77 3195.88 2040.45 3227.18 2046.36 3258.98C2049.81 3277.91 2066.42 3287.15 2081.07 3286.65C2085.43 3286.51 2089.56 3285.55 2093.35 3283.82C2097.48 3282.05 2101.22 3279.39 2104.52 3275.9C2168.85 3207.57 2276.11 3163.43 2391.44 3157.85C2397.59 3157.57 2403.41 3155.93 2408.74 3153L2408.75 3152.99C2426.85 3143.13 2434.56 3120.9 2426.3 3102.38C2420.03 3088.31 2408.42 3077.23 2391.81 3069.44C2384.42 3065.93 2376 3063.08 2366.76 3060.98C2362.04 3059.92 2357.28 3059.39 2352.55 3059.39Z" fill="#2D362E"/>
<g opacity="0.3">
<path d="M2409.97 3155.24C2404.5 3158.25 2398.31 3160.09 2391.56 3160.4C2363.64 3161.73 2335.93 3165.46 2309.08 3171.29C2321.3 3159.69 2326.31 3141.12 2318.7 3124.04C2312.56 3110.29 2300.95 3098.27 2282.95 3089.83C2275.54 3086.31 2267.05 3083.39 2257.38 3081.19C2250.79 3079.71 2243.94 3079.2 2237.19 3079.76C2236.57 3079.81 2236.01 3079.86 2235.4 3079.91C2273.54 3067.85 2312.46 3059.97 2347.13 3057.06C2353.88 3056.49 2360.73 3057 2367.33 3058.49C2376.99 3060.69 2385.48 3063.6 2392.89 3067.13C2410.89 3075.57 2422.5 3087.58 2428.64 3101.34C2437.94 3122.2 2428.38 3145.21 2409.97 3155.24Z" fill="#2D362E"/>
</g>
<path d="M2548.29 3394.09C2527.94 3431.06 2469.29 3445.48 2400.41 3442.36C2370.04 3440.98 2337.72 3436.17 2305.76 3428.4H2305.66C2208.6 3404.73 2115.53 3353.34 2094.42 3286.19V3286.14C2098.71 3284.3 2102.8 3281.44 2106.38 3277.65C2158.54 3222.22 2238.62 3183.72 2326.06 3167.92C2347.54 3163.98 2369.47 3161.47 2391.57 3160.4C2398.32 3160.09 2404.5 3158.25 2409.97 3155.24C2437.79 3237.21 2514.75 3276.32 2543.13 3337.28C2551.72 3355.64 2552.28 3374.97 2548.29 3394.09Z" fill="#ABEEAE"/>
<path d="M2548.29 3394.09C2545.53 3407.33 2540.62 3420.53 2534.74 3433.26C2497.26 3514.11 2384.1 3534.87 2276.76 3513.19C2217.4 3501.22 2159.87 3476.27 2117.89 3441.29C2094.67 3421.91 2081.17 3393.27 2081.17 3363V3289.21C2085.67 3289.06 2090.17 3288.09 2094.41 3286.14V3286.19C2115.53 3353.33 2208.6 3404.73 2305.65 3428.4H2305.76C2337.72 3436.17 2370.03 3440.98 2400.41 3442.36C2469.29 3445.48 2527.94 3431.06 2548.29 3394.09Z" fill="#F5FFF7"/>
<path d="M2353.61 3523.54C2327.69 3523.54 2301.41 3520.77 2276.26 3515.69C2214.11 3503.17 2157.28 3477.44 2116.25 3443.25C2092.33 3423.29 2078.61 3394.03 2078.61 3363V3286.74L2081.08 3286.65C2085.43 3286.51 2089.56 3285.56 2093.35 3283.82L2096.97 3282.16V3285.8C2119.63 3356.92 2219.67 3404.74 2305.97 3425.85L2306.36 3425.92C2338.16 3433.65 2370.72 3438.45 2400.53 3439.81C2474.69 3443.17 2527.78 3426.06 2546.06 3392.86L2554.28 3377.92L2550.8 3394.61C2548.25 3406.86 2543.75 3419.85 2537.06 3434.33C2507.53 3498.02 2432.29 3523.54 2353.61 3523.54ZM2083.73 3291.61V3363C2083.73 3392.52 2096.77 3420.34 2119.52 3439.33C2159.91 3472.98 2215.93 3498.32 2277.27 3510.68C2376.82 3530.79 2494.34 3514.32 2532.42 3432.18C2536.56 3423.23 2539.83 3414.88 2542.3 3406.95C2518.11 3434.25 2467.56 3447.97 2400.29 3444.92C2370.26 3443.55 2337.47 3438.73 2305.45 3430.96L2305.05 3430.89C2218.23 3409.71 2117.49 3361.54 2092.83 3289.56C2089.92 3290.61 2086.88 3291.3 2083.73 3291.61Z" fill="#2D362E"/>
<path d="M2255.24 3413.27C2372.34 3454.74 2514.6 3456.17 2548.76 3394.09C2552.75 3374.97 2552.19 3355.64 2543.59 3337.28C2539.2 3327.77 2533.57 3318.82 2527.18 3310.13C2527.18 3310.13 2527.13 3310.13 2527.13 3310.07C2526.51 3309.77 2526.21 3309.61 2526.21 3309.61C2476.45 3245.64 2286.43 3305.93 2255.24 3413.27Z" fill="#F5FFF7"/>
<path d="M2419.03 3445.31C2366.74 3445.31 2307.27 3434.4 2254.39 3415.68L2252.11 3414.87L2252.78 3412.55C2272.17 3345.86 2351.68 3297.69 2420.21 3284.57C2469.54 3275.13 2508.72 3283.52 2527.85 3307.57H2528.47L2528.85 3308.07L2529.69 3308.49V3309.22C2536.57 3318.65 2541.88 3327.48 2545.92 3336.21C2553.96 3353.39 2555.76 3373.04 2551.26 3394.61L2551 3395.32C2531.75 3430.31 2480.33 3445.31 2419.03 3445.31ZM2258.39 3411.66C2370.74 3450.83 2511.87 3454.9 2546.34 3393.19C2550.56 3372.6 2548.91 3354.66 2541.28 3338.36C2537.45 3330.08 2532.41 3321.67 2525.88 3312.68H2524.62L2524.54 3311.64L2524.19 3311.18C2506.68 3288.67 2468.17 3280.6 2421.17 3289.6C2354.97 3302.27 2278.36 3348.15 2258.39 3411.66Z" fill="#2D362E"/>
<path d="M1890.38 3182.06C1880.5 3182.06 1872.48 3174.07 1872.48 3164.19V3164.14C1872.48 3154.25 1880.5 3146.24 1890.38 3146.24C1900.27 3146.24 1908.28 3154.25 1908.28 3164.14C1908.28 3174.02 1900.27 3182.06 1890.38 3182.06Z" fill="#2D362E"/>
<path d="M2079.55 3307.14C2053.28 3307.14 2031.01 3288.75 2026.24 3262.67C2019.13 3224.4 2033.77 3185.91 2068.57 3151.42C2133.06 3087.54 2256.77 3046.63 2345.64 3039.22C2354.14 3038.51 2362.75 3039.12 2371.25 3041.02C2382.01 3043.48 2391.86 3046.82 2400.58 3050.97C2421.38 3060.72 2436.77 3075.63 2444.98 3094.05C2457.55 3122.23 2445.96 3155.99 2418.58 3170.93C2410.48 3175.39 2401.67 3177.86 2392.38 3178.28C2282.26 3183.62 2180.2 3225.35 2119.41 3289.92C2114.15 3295.49 2108.12 3299.74 2101.47 3302.59C2095.6 3305.28 2088.84 3306.86 2081.77 3307.1C2081.03 3307.13 2080.29 3307.14 2079.55 3307.14ZM2352.55 3074.73C2351.24 3074.73 2349.92 3074.78 2348.62 3074.89C2266.18 3081.76 2152.18 3118.99 2093.76 3176.85C2067.39 3202.98 2056.52 3229.68 2061.44 3256.18C2063.42 3267.04 2072.75 3271.65 2080.47 3271.33C2082.88 3271.25 2085.03 3270.76 2086.97 3269.87C2089.47 3268.79 2091.55 3267.29 2093.38 3265.36C2160.34 3194.23 2271.5 3148.3 2390.7 3142.53C2394.52 3142.35 2398.08 3141.36 2401.33 3139.56C2401.35 3139.55 2401.38 3139.53 2401.41 3139.52C2411.16 3134.21 2417.9 3121.2 2412.29 3108.63C2407.56 3098.03 2398.48 3089.52 2385.29 3083.34C2378.85 3080.27 2371.49 3077.79 2363.35 3075.94C2359.77 3075.14 2356.15 3074.73 2352.55 3074.73Z" fill="#2D362E"/>
<path d="M2418.96 3460.74C2404.98 3460.74 2390.23 3459.98 2374.79 3458.45C2252.21 3446.25 2106.3 3383.61 2077.34 3291.57C2076.79 3289.83 2076.52 3288.02 2076.52 3286.2C2076.52 3279.04 2080.78 3272.51 2087.36 3269.69C2089.47 3268.79 2091.55 3267.29 2093.38 3265.36C2160.34 3194.23 2271.5 3148.3 2390.7 3142.53C2394.52 3142.35 2398.08 3141.36 2401.33 3139.57C2405.96 3137.01 2411.5 3136.63 2416.44 3138.55C2421.38 3140.46 2425.22 3144.47 2426.92 3149.48C2441.35 3192.01 2470.89 3222.71 2499.45 3252.39C2523.26 3277.13 2545.75 3300.5 2559.35 3329.73C2568.82 3349.96 2571 3372.86 2565.81 3397.74C2565.45 3399.48 2564.83 3401.16 2563.97 3402.72C2543.24 3440.38 2491.43 3460.74 2418.96 3460.74ZM2116.31 3292.97C2149.28 3361.47 2271.8 3412.23 2378.34 3422.83C2454.64 3430.42 2512.78 3416.97 2531.31 3387.66C2534.25 3371.46 2532.8 3357.44 2526.92 3344.86C2515.82 3321.02 2495.34 3299.74 2473.66 3277.21C2447.23 3249.74 2417.68 3219.03 2399.46 3177.55C2397.13 3177.93 2394.77 3178.17 2392.38 3178.28C2282.26 3183.62 2180.2 3225.35 2119.41 3289.92C2118.41 3290.99 2117.37 3292 2116.31 3292.97Z" fill="#2D362E"/>
<path d="M2354.11 3539.23C2265.8 3539.23 2169.95 3507.97 2106.43 3455.04C2079 3432.14 2063.27 3398.6 2063.27 3363V3289.21C2063.27 3279.56 2070.92 3271.65 2080.57 3271.32C2082.88 3271.25 2085.03 3270.76 2086.97 3269.87C2092.5 3267.33 2098.95 3267.79 2104.08 3271.08C2107.85 3273.5 2110.53 3277.22 2111.68 3281.43C2135.67 3355.73 2265.91 3411.64 2378.34 3422.83C2456.52 3430.6 2515.64 3416.29 2532.61 3385.46C2536.89 3377.7 2546.2 3374.23 2554.5 3377.31C2562.81 3380.38 2567.62 3389.07 2565.81 3397.74C2563.02 3411.14 2558.17 3425.21 2550.99 3440.76C2529.75 3486.59 2486.33 3518.03 2425.41 3531.71C2402.82 3536.79 2378.75 3539.23 2354.11 3539.23ZM2099.07 3332.64V3363C2099.07 3387.95 2110.11 3411.48 2129.35 3427.55C2201.55 3487.71 2325.46 3517.5 2417.57 3496.79C2445.68 3490.47 2481.04 3477 2504.42 3448.26C2471.01 3459.95 2426.84 3463.63 2374.79 3458.45C2271.45 3448.16 2151.51 3402.02 2099.07 3332.64Z" fill="#2D362E"/>
<path d="M2255.25 3428.75C2253.84 3428.75 2252.4 3428.55 2250.98 3428.14C2242.84 3425.79 2238.15 3417.28 2240.5 3409.14C2262.18 3334.16 2347.59 3285.5 2417.76 3272.03C2472.37 3261.55 2516.33 3271.8 2538.39 3300.17C2543.59 3306.86 2542.38 3316.5 2535.7 3321.7C2529.01 3326.9 2519.37 3325.69 2514.17 3319.01C2499.67 3300.35 2465.78 3294.05 2423.55 3302.16C2360.32 3314.3 2287.26 3357.87 2269.97 3417.66C2268.04 3424.38 2261.9 3428.75 2255.25 3428.75Z" fill="#2D362E"/>
<path d="M2311.95 3236.03C2307.32 3236.03 2302.84 3233.55 2300.49 3229.2C2297.08 3222.87 2299.44 3214.99 2305.76 3211.58C2354.26 3185.41 2427.81 3189.25 2430.92 3189.41C2438.09 3189.82 2443.57 3195.96 2443.17 3203.13C2442.77 3210.3 2436.64 3215.8 2429.46 3215.38C2428.76 3215.34 2360.08 3211.82 2318.11 3234.47C2316.15 3235.52 2314.03 3236.03 2311.95 3236.03Z" fill="#2D362E"/>
<path d="M2346.49 3271.68C2341.57 3271.68 2336.86 3268.87 2334.67 3264.11C2331.67 3257.58 2334.53 3249.86 2341.05 3246.86C2391.12 3223.85 2464.28 3232.38 2467.37 3232.75C2474.5 3233.62 2479.58 3240.09 2478.72 3247.22C2477.86 3254.35 2471.39 3259.44 2464.25 3258.58C2463.57 3258.49 2395.24 3250.58 2351.91 3270.49C2350.15 3271.3 2348.31 3271.68 2346.49 3271.68Z" fill="#2D362E"/>
<path d="M2182.98 3329.64C2198.04 3329.64 2210.25 3310.18 2210.25 3286.18C2210.25 3262.18 2198.04 3242.72 2182.98 3242.72C2167.92 3242.72 2155.71 3262.18 2155.71 3286.18C2155.71 3310.18 2167.92 3329.64 2182.98 3329.64Z" fill="#F5FFF7"/>
<path d="M2182.98 3332.2C2166.53 3332.2 2153.15 3311.55 2153.15 3286.18C2153.15 3260.8 2166.53 3240.16 2182.98 3240.16C2199.43 3240.16 2212.81 3260.8 2212.81 3286.18C2212.81 3311.55 2199.43 3332.2 2182.98 3332.2ZM2182.98 3245.27C2169.35 3245.27 2158.26 3263.62 2158.26 3286.18C2158.26 3308.73 2169.35 3327.08 2182.98 3327.08C2196.61 3327.08 2207.7 3308.73 2207.7 3286.18C2207.7 3263.62 2196.61 3245.27 2182.98 3245.27Z" fill="#2D362E"/>
<path d="M2182.98 3340.04C2161.86 3340.04 2145.31 3316.38 2145.31 3286.18C2145.31 3255.97 2161.86 3232.31 2182.98 3232.31C2204.11 3232.31 2220.66 3255.97 2220.66 3286.18C2220.66 3316.38 2204.11 3340.04 2182.98 3340.04ZM2182.98 3253.12C2175.02 3253.12 2166.11 3267.26 2166.11 3286.18C2166.11 3305.1 2175.02 3319.24 2182.98 3319.24C2190.95 3319.24 2199.85 3305.1 2199.85 3286.18C2199.85 3267.26 2190.95 3253.12 2182.98 3253.12Z" fill="#2D362E"/>
<path d="M2081.17 3182.06C2071.28 3182.06 2063.27 3174.07 2063.27 3164.19V3164.14C2063.27 3154.25 2071.28 3146.24 2081.17 3146.24C2091.05 3146.24 2099.07 3154.25 2099.07 3164.14C2099.07 3174.02 2091.06 3182.06 2081.17 3182.06Z" fill="#2D362E"/>
<path d="M1620.21 2754.33C1618.88 2754.33 1617.52 2754.18 1616.16 2753.87C1606.53 2751.64 1600.53 2742.03 1602.76 2732.4L1619.04 2662.04C1620.3 2656.6 1624.02 2652.06 1629.11 2649.76C1703.18 2616.29 1740.48 2551.89 1734.11 2468.41C1733.71 2463.15 1735.66 2457.97 1739.43 2454.27C1743.2 2450.58 1748.39 2448.74 1753.67 2449.24C1926.67 2465.88 2096.17 2467.81 2243.85 2454.8C2248.91 2454.38 2253.87 2456.07 2257.57 2459.5C2261.28 2462.93 2263.37 2467.77 2263.31 2472.82C2262.34 2567.25 2295.28 2626.82 2370.11 2665.96C2374.94 2668.49 2378.36 2673.09 2379.39 2678.45L2389.87 2733.06C2391.74 2742.76 2385.38 2752.14 2375.67 2754.01C2365.96 2755.89 2356.59 2749.52 2354.72 2739.81L2345.83 2693.53C2269.29 2650.73 2231.41 2586.2 2227.79 2492.06C2088.46 2503 1931.25 2501.18 1770.59 2486.76C1770.41 2572.13 1728.04 2640.9 1651.96 2678.54L1637.64 2740.47C1635.72 2748.74 1628.36 2754.33 1620.21 2754.33Z" fill="#2D362E"/>
<path d="M2191.79 2313.24H2153.31C2141.43 2313.24 2131.79 2303.6 2131.79 2291.72V2108.11C2131.79 2091.49 2145.27 2078.01 2161.89 2078.01H2183.21C2199.83 2078.01 2213.3 2091.49 2213.3 2108.11V2291.72C2213.3 2303.6 2203.67 2313.24 2191.79 2313.24Z" fill="#F5FFF7"/>
<path d="M2172.55 2397.59C2164.08 2397.59 2157.21 2390.72 2157.21 2382.25V2290.21C2157.21 2281.74 2164.08 2274.87 2172.55 2274.87C2181.02 2274.87 2187.89 2281.74 2187.89 2290.21V2382.25C2187.89 2390.72 2181.02 2397.59 2172.55 2397.59Z" fill="#2D362E"/>
<path d="M1838.95 2313.24H1800.48C1788.59 2313.24 1778.96 2303.6 1778.96 2291.72V2112.1C1778.96 2093.27 1794.22 2078.01 1813.04 2078.01H1826.39C1845.21 2078.01 1860.47 2093.27 1860.47 2112.1V2291.72C1860.47 2303.6 1850.83 2313.24 1838.95 2313.24Z" fill="#F5FFF7"/>
<path d="M1819.71 2397.59C1811.24 2397.59 1804.37 2390.72 1804.37 2382.25V2290.21C1804.37 2281.74 1811.24 2274.87 1819.71 2274.87C1828.19 2274.87 1835.06 2281.74 1835.06 2290.21V2382.25C1835.06 2390.72 1828.19 2397.59 1819.71 2397.59Z" fill="#2D362E"/>
<g opacity="0.3">
<path d="M1889.82 3290.54V3363C1889.82 3393.27 1876.32 3421.91 1853.11 3441.29C1820.94 3468.08 1779.57 3489 1735.29 3502.7C1726.24 3503.16 1716.88 3503.27 1707.22 3502.96C1642.63 3500.97 1616.19 3470.9 1606.38 3439.3C1606.38 3439.3 1606.38 3439.3 1606.38 3439.24C1603.21 3429.07 1601.78 3418.73 1601.35 3409.12C1600.29 3385.43 1617.49 3364.82 1641.02 3361.87C1723.19 3351.58 1783.91 3312.2 1818.94 3237.82C1818.94 3237.82 1818.94 3237.82 1818.95 3237.82L1887.83 3289.06L1889.82 3290.54Z" fill="#2D362E"/>
</g>
<path d="M1788.55 3329.64C1803.61 3329.64 1815.82 3310.18 1815.82 3286.18C1815.82 3262.18 1803.61 3242.72 1788.55 3242.72C1773.48 3242.72 1761.27 3262.18 1761.27 3286.18C1761.27 3310.18 1773.48 3329.64 1788.55 3329.64Z" fill="#F5FFF7"/>
<path d="M1788.55 3332.2C1772.1 3332.2 1758.72 3311.55 1758.72 3286.18C1758.72 3260.8 1772.1 3240.16 1788.55 3240.16C1804.99 3240.16 1818.37 3260.8 1818.37 3286.18C1818.37 3311.55 1804.99 3332.2 1788.55 3332.2ZM1788.55 3245.27C1774.92 3245.27 1763.83 3263.62 1763.83 3286.18C1763.83 3308.73 1774.92 3327.08 1788.55 3327.08C1802.17 3327.08 1813.26 3308.73 1813.26 3286.18C1813.26 3263.62 1802.17 3245.27 1788.55 3245.27Z" fill="#2D362E"/>
<path d="M1788.55 3340.04C1767.42 3340.04 1750.87 3316.38 1750.87 3286.18C1750.87 3255.97 1767.42 3232.31 1788.55 3232.31C1809.67 3232.31 1826.22 3255.97 1826.22 3286.18C1826.22 3316.38 1809.67 3340.04 1788.55 3340.04ZM1788.55 3253.12C1780.59 3253.12 1771.68 3267.26 1771.68 3286.18C1771.68 3305.1 1780.58 3319.24 1788.55 3319.24C1796.51 3319.24 1805.42 3305.1 1805.42 3286.18C1805.42 3267.26 1796.51 3253.12 1788.55 3253.12Z" fill="#2D362E"/>
<g opacity="0.3">
<path d="M2548.29 3394.09C2545.53 3407.33 2540.62 3420.53 2534.74 3433.26C2497.26 3514.11 2384.1 3534.87 2276.76 3513.19C2175.21 3447.07 2305.66 3428.4 2305.66 3428.4H2305.76L2400.41 3442.36C2518.94 3402.17 2434.57 3289.31 2326.06 3167.92C2347.54 3163.98 2369.47 3161.47 2391.56 3160.4C2398.31 3160.09 2404.5 3158.25 2409.97 3155.24C2437.79 3237.21 2514.75 3276.32 2543.13 3337.28C2551.72 3355.64 2552.28 3374.97 2548.29 3394.09Z" fill="#2D362E"/>
</g>
<g opacity="0.3">
<path d="M2469.29 2438.93C2460.44 2666.84 2437.79 2877.57 2394.43 3062.37C2394.43 3062.48 2394.37 3062.53 2394.37 3062.63L2369.42 3059L2355.2 3056.9H2354.95L2285.61 3066.52C2358.22 2755.41 2370.34 2430.8 2297.83 2087.37L2352.9 2078.02C2354.28 1917.81 2172.55 2005.56 2172.55 2005.56L2262.03 1890.45L2292.92 1856.24L2517.61 1855.98C2561.38 1909.78 2542.1 1978.25 2468.16 2028.46C2489.43 2040.28 2509.89 2051.99 2529.47 2063.7C2528.09 2065.84 2527.33 2067.02 2527.33 2067.02C2500.44 2079.46 2479.4 2100.95 2463.59 2130.55C2442.15 2170.7 2462.41 2221.27 2505.66 2235.46C2591.03 2263.46 2597.42 2323.72 2469.29 2438.93Z" fill="#2D362E"/>
</g>
<g opacity="0.3">
<path d="M2599.53 2536.49L2601.63 2571.16C2602.34 2583.18 2592.42 2593.2 2580.41 2592.49L2589.35 2636.21C2732.02 2628.38 2669.33 2797.59 2580.41 2756.58C2557.85 2786.85 2499 2795.65 2468.67 2753.05L2471.74 2712.91C2493.12 2753 2543.95 2728.15 2543.95 2728.15C2611.14 2727.18 2584.19 2681.41 2584.19 2681.41C2518.02 2649.71 2532.59 2601.08 2538.73 2586.66C2539.85 2584 2540.72 2582.52 2540.72 2582.52L2551.62 2579.14C2536.07 2534.81 2551.62 2510.06 2551.62 2510.06C2718.78 2417.25 2731.31 2288.84 2641.21 2136.92C2845.03 2286.13 2874.64 2422.56 2599.53 2536.49Z" fill="#2D362E"/>
</g>
<g opacity="0.3">
<path d="M1808.21 3101.13L1864.78 2931.32L1915.17 2958.36L1890.38 3171.29L1808.21 3101.13Z" fill="#2D362E"/>
</g>
<g opacity="0.3">
<path d="M2119.41 2931.32L2172.55 3104.1L2081.17 3155.24L2061.83 2957.73L2119.41 2931.32Z" fill="#2D362E"/>
</g>
<path d="M2779.38 1484.43C2770.47 1484.87 2762.88 1478.01 2762.43 1469.11L2739.08 1004.43C2738.63 995.517 2745.49 987.931 2754.4 987.483C2847.87 982.785 2927.45 1054.75 2932.15 1148.22L2940.11 1306.68C2944.81 1400.15 2872.85 1479.73 2779.38 1484.43Z" fill="#F5FFF7"/>
<path d="M2778.54 1488.16C2773.61 1488.16 2768.93 1486.35 2765.25 1483.03C2761.31 1479.47 2759 1474.59 2758.73 1469.29L2735.37 1004.61C2734.82 993.678 2743.28 984.332 2754.21 983.78C2800.4 981.451 2844.74 997.266 2879.05 1028.29C2913.36 1059.31 2933.53 1101.84 2935.85 1148.03L2943.82 1306.49C2946.14 1352.69 2930.33 1397.02 2899.31 1431.33C2868.28 1465.64 2825.76 1485.81 2779.56 1488.13C2779.22 1488.15 2778.88 1488.16 2778.54 1488.16ZM2763.1 990.971C2760.27 990.971 2757.43 991.042 2754.58 991.186C2747.73 991.533 2742.44 997.387 2742.78 1004.24L2766.14 1468.92C2766.31 1472.24 2767.76 1475.29 2770.22 1477.52C2772.68 1479.75 2775.87 1480.87 2779.19 1480.72H2779.19C2823.41 1478.5 2864.11 1459.19 2893.81 1426.35C2923.5 1393.51 2938.63 1351.08 2936.41 1306.86L2928.45 1148.4C2926.22 1104.19 2906.91 1063.48 2874.08 1033.79C2843.35 1006.01 2804.22 990.971 2763.1 990.971Z" fill="#2D362E"/>
<g opacity="0.35">
<path d="M2936.38 1232.37L2940.13 1306.69C2944.81 1400.13 2872.86 1479.73 2779.37 1484.46C2770.46 1484.92 2762.88 1478.01 2762.42 1469.1L2756.17 1345.58C2758.96 1351.08 2764.79 1354.69 2771.33 1354.41L2782.35 1353.82C2856.21 1350.13 2916.68 1299.62 2936.38 1232.37Z" fill="#2D362E"/>
</g>
<path d="M2778.52 1505.09C2769.39 1505.09 2760.71 1501.75 2753.89 1495.59C2746.6 1488.99 2742.31 1479.96 2741.82 1470.14L2718.46 1005.46C2717.44 985.199 2733.1 967.887 2753.36 966.864C2804.13 964.318 2852.74 981.671 2890.41 1015.73C2928.07 1049.78 2950.22 1096.47 2952.76 1147.18L2960.73 1305.64C2965.99 1410.33 2885.1 1499.78 2780.41 1505.04C2779.78 1505.07 2779.15 1505.09 2778.52 1505.09ZM2778.37 1463.81C2778.36 1463.81 2778.35 1463.81 2778.34 1463.81C2778.36 1463.81 2778.36 1463.81 2778.37 1463.81ZM2759.92 1007.94L2782.82 1463.52C2820.79 1460.49 2855.59 1443.37 2881.25 1414.99C2907.91 1385.51 2921.49 1347.41 2919.5 1307.71L2911.53 1149.26C2909.54 1109.55 2892.2 1073.01 2862.72 1046.35C2834.35 1020.69 2798.04 1007.15 2759.92 1007.94Z" fill="#2D362E"/>
<path d="M1220.6 1064.58C1229.51 1064.13 1237.09 1070.99 1237.54 1079.9L1260.9 1544.58C1261.35 1553.49 1254.49 1561.08 1245.58 1561.52C1152.11 1566.22 1072.53 1494.26 1067.83 1400.79L1059.86 1242.33C1055.16 1148.86 1127.13 1069.28 1220.6 1064.58Z" fill="#F5FFF7"/>
<path d="M1236.97 1565.45C1145.44 1565.45 1068.77 1493.39 1064.12 1400.97L1056.16 1242.52C1053.84 1196.32 1069.64 1151.99 1100.67 1117.68C1131.69 1083.37 1174.22 1063.2 1220.41 1060.88C1231.43 1060.29 1240.7 1068.78 1241.25 1079.72L1264.61 1544.39C1265.15 1555.33 1256.7 1564.68 1245.77 1565.23C1242.82 1565.38 1239.89 1565.45 1236.97 1565.45ZM1220.78 1068.28C1176.57 1070.51 1135.86 1089.82 1106.17 1122.65C1076.47 1155.49 1061.34 1197.93 1063.57 1242.15L1071.53 1400.6C1075.98 1489.06 1149.37 1558.03 1236.97 1558.03C1239.77 1558.03 1242.57 1557.96 1245.39 1557.82C1252.25 1557.48 1257.54 1551.62 1257.2 1544.77L1233.84 1080.09C1233.5 1073.24 1227.76 1067.91 1220.78 1068.28Z" fill="#2D362E"/>
<g opacity="0.35">
<path d="M1254.46 1415.67L1260.92 1544.58C1261.38 1553.49 1254.47 1561.07 1245.57 1561.53C1196.51 1563.97 1151.23 1545.33 1118.63 1513.49C1089.18 1484.74 1070.09 1445.19 1067.85 1400.82L1064.49 1334.05C1093.96 1391.29 1155.13 1429.13 1223.66 1425.7L1240.62 1424.84C1246.81 1424.52 1251.9 1420.83 1254.46 1415.67Z" fill="#2D362E"/>
</g>
<path d="M1236.96 1582.38C1136.48 1582.38 1052.31 1503.28 1047.21 1401.83L1039.25 1243.37C1036.7 1192.66 1054.05 1143.98 1088.11 1106.32C1122.16 1068.66 1168.85 1046.51 1219.56 1043.96C1219.56 1043.96 1219.56 1043.96 1219.57 1043.96C1239.79 1043 1257.14 1058.61 1258.16 1078.87L1281.52 1543.54C1282.53 1563.81 1266.87 1581.12 1246.61 1582.14C1243.38 1582.3 1240.16 1582.38 1236.96 1582.38ZM1217.15 1085.49C1179.19 1088.52 1144.38 1105.64 1118.73 1134.01C1092.07 1163.5 1078.48 1201.6 1080.48 1241.3L1088.45 1399.76C1092.49 1480.21 1159.96 1542.72 1240.06 1541.07L1217.15 1085.49Z" fill="#2D362E"/>
<path d="M2000.08 2067.35C2437.96 2067.35 2792.94 1712.38 2792.94 1274.5C2792.94 836.62 2437.96 481.648 2000.08 481.648C1562.2 481.648 1207.23 836.62 1207.23 1274.5C1207.23 1712.38 1562.2 2067.35 2000.08 2067.35Z" fill="#F5FFF7"/>
<path d="M2000.52 2071.06C1994.87 2071.06 1989.22 2071 1983.55 2070.89C1770.82 2066.47 1572.55 1979.48 1425.26 1825.93C1277.96 1672.39 1199.28 1470.68 1203.7 1257.96C1208.12 1045.24 1295.11 846.967 1448.65 699.672C1602.19 552.377 1803.96 473.664 2016.62 478.109C2455.75 487.23 2805.59 851.908 2796.47 1291.04C2792.05 1503.76 2705.06 1702.03 2551.52 1849.33C2402.07 1992.69 2206.98 2071.06 2000.52 2071.06ZM1999.65 485.35C1795.1 485.35 1601.85 562.984 1453.78 705.023C1301.67 850.946 1215.49 1047.37 1211.11 1258.11C1206.74 1468.86 1284.69 1668.69 1430.61 1820.8C1576.53 1972.91 1772.96 2059.1 1983.7 2063.47C2194.34 2067.86 2394.27 1989.9 2546.38 1843.97C2698.5 1698.05 2784.68 1501.63 2789.05 1290.88C2793.43 1080.14 2715.48 880.308 2569.56 728.197C2423.63 576.086 2227.21 489.901 2016.47 485.526C2010.86 485.409 2005.24 485.35 1999.65 485.35Z" fill="#2D362E"/>
<g opacity="0.35">
<path d="M2787.45 1181.08C2791.75 1217.02 2793.55 1253.7 2792.78 1290.97C2783.63 1728.74 2421.38 2076.26 1983.61 2067.21C1545.84 2058.06 1198.32 1695.81 1207.37 1258.04C1207.63 1245.45 1208.18 1232.86 1209.04 1220.46C1254.47 1607.44 1579.39 1911.4 1979.95 1919.73C2405.13 1928.53 2759 1601 2787.45 1181.08Z" fill="black"/>
<path d="M2000.23 2071.09C1994.66 2071.09 1989.14 2071.03 1983.54 2070.91C1544.44 2061.73 1194.59 1697.05 1203.67 1257.96C1203.92 1245.23 1204.49 1232.52 1205.35 1220.2C1205.48 1218.29 1207.04 1216.8 1208.96 1216.75C1210.63 1216.74 1212.51 1218.12 1212.73 1220.03C1258.35 1608.66 1588.21 1907.87 1980.03 1916.02C1985.59 1916.14 1991.2 1916.2 1996.75 1916.2C2411.51 1916.23 2755.61 1596.27 2783.75 1180.82C2783.87 1178.91 2785.44 1177.42 2787.35 1177.37C2789.23 1177.32 2790.9 1178.73 2791.13 1180.63C2795.45 1216.71 2797.25 1253.86 2796.49 1291.04C2787.42 1724.54 2431.8 2071.05 2000.23 2071.09ZM1211.04 1260.53C1203.36 1694.46 1549.48 2054.42 1983.69 2063.5C2418.71 2072.41 2779.98 1725.9 2789.07 1290.89C2789.55 1267.53 2789.01 1244.19 2787.46 1221.13C2765.18 1410.29 2676.46 1584.03 2534.98 1713.91C2383.15 1853.29 2186.04 1927.6 1979.87 1923.44C1786.41 1919.42 1601.37 1845.33 1458.82 1714.83C1327.5 1594.6 1240.46 1434.52 1211.04 1260.53Z" fill="#2D362E"/>
</g>
<path d="M2789.81 1311.27C2788.93 1466.41 2737.75 1610.17 2650.95 1728.86C2585.87 1817.84 2319.53 1972.7 1991.73 1973.79C1687.79 1974.8 1412.18 1811.2 1348.12 1721.48C1262.66 1601.82 1213.11 1457.5 1213.99 1302.35C1216.31 891.788 1570.02 723.581 2005.19 726.044C2440.36 728.507 2792.13 900.704 2789.81 1311.27Z" fill="black"/>
<path d="M1988.87 1994.44C1675.12 1994.44 1398.4 1827.41 1331.31 1733.48C1240.18 1605.87 1192.47 1456.74 1193.35 1302.23C1194.48 1100.82 1276.13 945.979 1436.01 842.009C1575.47 751.323 1772.25 704.248 2005.3 705.403C2238.27 706.721 2434.58 756.184 2573 848.442C2731.7 954.216 2811.59 1109.97 2810.45 1311.39C2809.58 1465.89 2760.18 1614.47 2667.61 1741.04C2628.89 1793.98 2537.09 1856.13 2428.04 1903.23C2332.52 1944.49 2179.3 1993.81 1991.8 1994.44C1990.84 1994.44 1989.83 1994.44 1988.87 1994.44ZM1995.79 746.66C1774.97 746.66 1589.37 791.528 1458.52 876.618C1311.01 972.541 1235.68 1115.82 1234.63 1302.47C1233.8 1448.24 1278.85 1588.98 1364.91 1709.49C1425.82 1794.78 1693.47 1953.16 1988.92 1953.16C1989.84 1953.16 1990.74 1953.15 1991.66 1953.15C2320.3 1952.06 2576.24 1796.02 2634.28 1716.67C2721.7 1597.15 2768.34 1456.92 2769.16 1311.15C2772.02 805.611 2235.76 747.994 2005.07 746.688C2001.98 746.67 1998.86 746.66 1995.79 746.66Z" fill="#2D362E"/>
<path d="M2000.53 2088C1994.76 2088 1988.99 2087.94 1983.19 2087.82C1765.95 2083.3 1563.47 1994.46 1413.04 1837.66C1262.61 1680.85 1182.26 1474.85 1186.77 1257.61C1191.28 1040.36 1280.12 837.877 1436.92 687.452C1593.73 537.027 1799.64 456.668 2016.98 461.18C2234.22 465.692 2436.7 554.532 2587.13 711.339C2737.56 868.146 2817.91 1074.14 2813.4 1291.39C2808.89 1508.63 2720.05 1711.12 2563.24 1861.54C2410.62 2007.96 2211.37 2088 2000.53 2088ZM1999.85 502.286C1581.44 502.286 1236.77 838.189 1228.04 1258.47C1219.2 1684.17 1558.35 2037.7 1984.05 2046.54C2190.24 2050.75 2385.82 1974.54 2534.66 1831.75C2683.51 1688.96 2767.84 1496.75 2772.13 1290.53C2776.41 1084.31 2700.13 888.767 2557.34 739.917C2414.55 591.069 2222.34 506.738 2016.12 502.454C2010.69 502.342 2005.26 502.286 1999.85 502.286Z" fill="#2D362E"/>
<g opacity="0.5">
<path d="M2634.15 1272.67C2648.4 1196.5 2615.21 1126.37 2560.01 1116.05C2504.81 1105.72 2448.51 1159.1 2434.26 1235.27C2420.01 1311.45 2453.21 1381.57 2508.4 1391.9C2563.6 1402.22 2619.9 1348.84 2634.15 1272.67Z" fill="#F5FFF7"/>
</g>
<g opacity="0.5">
<path d="M2460.26 1548.86C2471.56 1515.14 2457.27 1479.94 2428.33 1470.23C2399.39 1460.53 2366.77 1480 2355.46 1513.72C2344.15 1547.45 2358.45 1582.65 2387.38 1592.35C2416.32 1602.05 2448.95 1582.58 2460.26 1548.86Z" fill="#F5FFF7"/>
</g>
<path d="M2638.73 927.381C2734.53 1019.84 2790.71 1146.35 2789.8 1311.24C2788.92 1466.42 2737.71 1610.16 2650.97 1728.86C2585.87 1817.84 2319.51 1972.69 1991.72 1973.82C1875.98 1974.23 1764.38 1950.74 1666.96 1916.5C2069.86 1906.53 2394.31 1716.45 2475.01 1606.08C2585.19 1455.45 2650.14 1272.97 2651.22 1076.11C2651.55 1023.49 2647.19 973.953 2638.73 927.381Z" fill="black"/>
<path d="M1275.32 973.234C1270.54 973.234 1265.74 971.584 1261.83 968.215C1253.58 961.091 1252.35 948.862 1258.77 940.261C1393.96 744.211 1658.71 637.395 2004.92 639.267C2344.7 641.196 2606.06 747.597 2740.85 938.867L2724.08 950.849L2710.94 966.764C2709.52 965.595 2708.16 964.149 2707.1 962.648C2580.21 782.587 2330.76 682.404 2004.69 680.551C1672.38 678.583 1419.51 779.403 1292.43 964.181C1292.1 964.655 1291.76 965.114 1291.39 965.555C1291.28 965.697 1291.07 965.946 1290.95 966.082C1286.87 970.809 1281.11 973.234 1275.32 973.234Z" fill="#2D362E"/>
<g opacity="0.5">
<path d="M1389.55 1547.59C1389.55 1547.59 1264.69 1141.85 1483.88 981.686C1703.07 821.52 2017.11 823.948 2009.66 844.047C2009.66 844.047 1661.51 926.247 1523.92 1200.33C1417.83 1411.68 1389.55 1547.59 1389.55 1547.59Z" fill="#F5FFF7"/>
</g>
</g>
<defs>
<clipPath id="clip0_120_2">
<rect width="4000" height="4000" fill="white"/>
</clipPath>
</defs>
</svg>
